
<svg width="810.2" height="51.2" viewBox="0 0 810.2 51.2" xmlns="http://www.w3.org/2000/svg"><g id="svgGroup" stroke-linecap="round" fill-rule="evenodd" font-size="9pt" stroke="#909ebd" stroke-width="0.25mm" fill="#ffffff19" style="stroke:#909ebd;stroke-width:0.25mm;fill:#ffffff19"><path d="M 2.1 50.5 L 0 50.5 L 11.8 10.6 A 16.484 16.484 0 0 1 12.501 8.583 Q 13.25 6.833 14.3 5.75 Q 15.738 4.267 19.275 4.117 A 19.442 19.442 0 0 1 20.1 4.1 Q 23.456 4.1 25.12 5.058 A 3.688 3.688 0 0 1 25.85 5.6 A 6.616 6.616 0 0 1 26.851 6.868 Q 27.744 8.303 28.4 10.6 L 40.6 50.5 L 38.1 50.5 L 33.8 36.4 L 6.3 36.4 L 2.1 50.5 Z M 13.7 10.8 L 6.8 34.6 L 33.3 34.6 L 26 10.8 Q 25.4 8.9 24.35 7.45 A 2.857 2.857 0 0 0 23.216 6.552 Q 22.244 6.097 20.69 6.017 A 13.425 13.425 0 0 0 20 6 Q 16.4 6 15.3 7.5 Q 14.2 9 13.7 10.8 Z" id="0" vector-effect="non-scaling-stroke"/><path d="M 53.533 48.428 A 3.109 3.109 0 0 0 53.5 48.9 A 2.462 2.462 0 0 0 53.51 49.13 Q 53.56 49.66 53.85 49.95 A 1.923 1.923 0 0 0 53.917 50.013 A 1.59 1.59 0 0 0 54.65 50.4 A 4.498 4.498 0 0 0 54.98 50.461 A 3.623 3.623 0 0 0 55.5 50.5 Q 55.9 50.5 56.35 50.4 Q 56.8 50.3 57.1 49.95 A 1.071 1.071 0 0 0 57.282 49.64 Q 57.344 49.481 57.374 49.285 A 2.61 2.61 0 0 0 57.4 48.9 A 4.26 4.26 0 0 0 57.394 48.671 Q 57.366 48.157 57.209 47.848 A 0.806 0.806 0 0 0 56.8 47.45 A 3.145 3.145 0 0 0 56.084 47.251 A 4.338 4.338 0 0 0 55.4 47.2 Q 54.7 47.2 54.1 47.5 A 0.887 0.887 0 0 0 53.984 47.57 Q 53.626 47.823 53.533 48.428 Z" id="1" vector-effect="non-scaling-stroke"/><path d="M 75.8 50.5 L 73.4 50.5 L 73.4 28.5 L 73.4 6.5 A 15.904 15.904 0 0 1 73.405 6.092 Q 73.414 5.719 73.443 5.46 A 4.046 4.046 0 0 1 73.45 5.4 A 1.242 1.242 0 0 1 73.536 5.068 A 0.993 0.993 0 0 1 73.75 4.75 Q 73.957 4.543 74.336 4.507 A 1.759 1.759 0 0 1 74.5 4.5 L 75.8 4.5 L 75.8 50.5 Z" id="2" vector-effect="non-scaling-stroke"/><path d="M 95.933 48.428 A 3.109 3.109 0 0 0 95.9 48.9 A 2.462 2.462 0 0 0 95.91 49.13 Q 95.96 49.66 96.25 49.95 A 1.923 1.923 0 0 0 96.317 50.013 A 1.59 1.59 0 0 0 97.05 50.4 A 4.498 4.498 0 0 0 97.38 50.461 A 3.623 3.623 0 0 0 97.9 50.5 Q 98.3 50.5 98.75 50.4 Q 99.2 50.3 99.5 49.95 A 1.071 1.071 0 0 0 99.682 49.64 Q 99.744 49.481 99.774 49.285 A 2.61 2.61 0 0 0 99.8 48.9 A 4.26 4.26 0 0 0 99.794 48.671 Q 99.766 48.157 99.609 47.848 A 0.806 0.806 0 0 0 99.2 47.45 A 3.145 3.145 0 0 0 98.484 47.251 A 4.338 4.338 0 0 0 97.8 47.2 Q 97.1 47.2 96.5 47.5 A 0.887 0.887 0 0 0 96.384 47.57 Q 96.026 47.823 95.933 48.428 Z" id="3" vector-effect="non-scaling-stroke"/><path d="M 141.9 50.5 L 139.5 50.5 L 139.5 29.8 L 139.5 9.2 Q 139.5 6.99 140.179 5.974 A 1.96 1.96 0 0 1 140.75 5.4 Q 142 4.6 144.2 4.5 Q 146.331 4.431 149.03 4.386 A 505.731 505.731 0 0 1 151.6 4.35 Q 155.9 4.3 160.15 4.35 Q 163.952 4.395 166.513 4.559 A 60.633 60.633 0 0 1 167.1 4.6 A 19.225 19.225 0 0 1 169.709 4.971 Q 171.055 5.263 172.16 5.749 A 9.664 9.664 0 0 1 173.4 6.4 Q 175.8 7.9 176.85 10.55 Q 177.798 12.944 177.89 16.194 A 25.025 25.025 0 0 1 177.9 16.9 A 21.013 21.013 0 0 1 177.656 20.194 Q 177.275 22.591 176.3 24.45 Q 174.7 27.5 171.75 29 A 13.21 13.21 0 0 1 168.291 30.165 Q 166.585 30.5 164.6 30.5 L 155.45 30.5 L 146.2 30.5 A 8.6 8.6 0 0 1 146.212 30.032 Q 146.224 29.807 146.249 29.606 A 5.169 5.169 0 0 1 146.25 29.6 Q 146.3 29.2 146.6 28.9 A 0.872 0.872 0 0 1 146.903 28.709 Q 147.162 28.607 147.548 28.6 A 3.163 3.163 0 0 1 147.6 28.6 L 151.8 28.6 L 158.25 28.6 L 164.3 28.6 Q 167.2 28.6 169.7 27.6 A 7.921 7.921 0 0 0 173.081 24.99 A 10.29 10.29 0 0 0 173.75 24 A 9.382 9.382 0 0 0 174.695 21.741 Q 175.298 19.608 175.3 16.623 A 29.804 29.804 0 0 0 175.3 16.6 A 16.543 16.543 0 0 0 175.075 13.788 Q 174.647 11.306 173.4 9.6 A 6.723 6.723 0 0 0 170.452 7.35 Q 169.399 6.916 168.096 6.711 A 14.253 14.253 0 0 0 167.2 6.6 A 64.948 64.948 0 0 0 163.71 6.302 Q 161.876 6.192 159.837 6.158 A 107.535 107.535 0 0 0 159.25 6.15 A 259.172 259.172 0 0 0 156.339 6.133 Q 154.197 6.133 152.181 6.171 A 198.111 198.111 0 0 0 150.85 6.2 Q 146.9 6.3 144.6 6.4 Q 144.253 6.4 143.34 6.702 A 19.618 19.618 0 0 0 143.05 6.8 Q 142.124 7.122 141.944 8.417 A 4.967 4.967 0 0 0 141.9 9.1 L 141.9 29.75 L 141.9 50.5 Z" id="5" vector-effect="non-scaling-stroke"/><path d="M 200.681 50.788 A 42.352 42.352 0 0 0 205 51 Q 208.8 51 212.05 50.4 Q 215.3 49.8 217.75 47.8 A 9.225 9.225 0 0 0 218.889 46.688 Q 219.783 45.656 220.492 44.271 A 18.009 18.009 0 0 0 221.55 41.7 Q 222.478 38.881 222.768 34.692 A 59.429 59.429 0 0 0 222.9 30.6 A 57.414 57.414 0 0 0 222.755 26.373 Q 222.609 24.411 222.319 22.75 A 22.502 22.502 0 0 0 221.55 19.6 A 20.477 20.477 0 0 0 221.158 18.511 Q 220.587 17.06 219.858 15.905 A 10.42 10.42 0 0 0 217.75 13.45 Q 215.3 11.4 212.05 10.8 A 34.349 34.349 0 0 0 209.319 10.412 A 42.352 42.352 0 0 0 205 10.2 Q 201.2 10.2 197.95 10.8 Q 194.7 11.4 192.25 13.45 Q 189.8 15.5 188.45 19.6 A 17.422 17.422 0 0 0 188.435 19.646 Q 187.52 22.452 187.232 26.561 A 57.995 57.995 0 0 0 187.1 30.6 A 57.414 57.414 0 0 0 187.245 34.827 Q 187.391 36.789 187.681 38.45 A 22.502 22.502 0 0 0 188.45 41.6 A 20.477 20.477 0 0 0 188.842 42.689 Q 189.413 44.14 190.142 45.295 A 10.42 10.42 0 0 0 192.25 47.75 Q 194.7 49.8 197.95 50.4 A 34.349 34.349 0 0 0 200.681 50.788 Z M 205 49.2 A 31.062 31.062 0 0 0 208.819 48.978 Q 210.816 48.73 212.526 48.206 A 17.736 17.736 0 0 0 213.3 47.95 A 8.752 8.752 0 0 0 217.604 44.582 A 12.466 12.466 0 0 0 218.65 42.75 Q 220.5 38.8 220.5 30.6 Q 220.5 22.4 218.65 18.45 A 11.705 11.705 0 0 0 217.03 15.867 A 8.571 8.571 0 0 0 213.3 13.25 Q 210.149 12.125 205.943 12.012 A 35.401 35.401 0 0 0 205 12 A 31.048 31.048 0 0 0 201.323 12.206 Q 199.43 12.432 197.804 12.906 A 17.358 17.358 0 0 0 196.75 13.25 A 8.801 8.801 0 0 0 192.628 16.392 A 12.68 12.68 0 0 0 191.4 18.45 Q 189.736 21.909 189.529 28.627 A 64.166 64.166 0 0 0 189.5 30.6 Q 189.5 37.692 190.921 41.605 A 12.436 12.436 0 0 0 191.4 42.75 Q 193.3 46.7 196.75 47.95 Q 199.828 49.065 203.98 49.185 A 35.222 35.222 0 0 0 205 49.2 Z" id="6" vector-effect="non-scaling-stroke"/><path d="M 233.9 38.9 L 233.9 13.2 A 16.182 16.182 0 0 1 233.912 12.553 Q 233.955 11.491 234.15 11.1 Q 234.381 10.639 235.25 10.603 A 3.663 3.663 0 0 1 235.4 10.6 L 236.1 10.6 L 236.1 39.4 Q 236.1 44.163 237.887 46.263 A 4.558 4.558 0 0 0 238.75 47.05 A 8.238 8.238 0 0 0 240.886 48.084 Q 243.002 48.785 246.144 48.884 A 33.678 33.678 0 0 0 247.2 48.9 Q 253.2 48.9 255.85 46.95 Q 258.5 45 258.5 41.5 L 258.4 10.6 L 260.7 10.6 L 260.7 41.5 A 7.53 7.53 0 0 0 261.081 43.953 A 6.203 6.203 0 0 0 263.3 46.95 A 7.664 7.664 0 0 0 265.383 48.02 Q 267.447 48.741 270.571 48.871 A 34.328 34.328 0 0 0 272 48.9 A 28.813 28.813 0 0 0 274.933 48.762 Q 278.511 48.394 280.4 47.05 A 5.08 5.08 0 0 0 282.034 45.004 Q 282.847 43.263 282.976 40.482 A 23.424 23.424 0 0 0 283 39.4 L 283 10.6 L 283.7 10.6 A 3.703 3.703 0 0 1 284.124 10.622 Q 284.558 10.673 284.787 10.836 A 0.592 0.592 0 0 1 285 11.1 A 1.731 1.731 0 0 1 285.083 11.395 Q 285.181 11.879 285.197 12.814 A 22.404 22.404 0 0 1 285.2 13.2 L 285.2 38.9 A 28.902 28.902 0 0 1 285.081 41.615 Q 284.823 44.342 284.003 46.076 A 7.227 7.227 0 0 1 283.7 46.65 Q 282.2 49.2 279.3 49.95 A 20.583 20.583 0 0 1 276.914 50.407 Q 275.697 50.572 274.294 50.644 A 44.761 44.761 0 0 1 272 50.7 A 27.044 27.044 0 0 1 267.608 50.36 A 20.237 20.237 0 0 1 263.5 49.25 Q 259.8 47.8 259.1 43.2 L 260 43.1 Q 259.6 46 257.9 47.7 A 8.345 8.345 0 0 1 255.217 49.479 A 11.046 11.046 0 0 1 253.45 50.05 Q 250.786 50.68 247.418 50.699 A 37.313 37.313 0 0 1 247.2 50.7 A 42.766 42.766 0 0 1 244.134 50.597 Q 242.692 50.493 241.452 50.284 A 19.906 19.906 0 0 1 239.85 49.95 A 7.432 7.432 0 0 1 237.228 48.737 A 6.944 6.944 0 0 1 235.4 46.7 A 8.361 8.361 0 0 1 234.578 44.761 Q 233.9 42.464 233.9 38.9 Z" id="7" vector-effect="non-scaling-stroke"/><path d="M 330.8 26.4 L 330.8 30.9 L 302.3 30.9 Q 302.3 30.2 302.7 29.7 A 1.173 1.173 0 0 1 303.186 29.35 Q 303.387 29.268 303.641 29.231 A 3.194 3.194 0 0 1 304.1 29.2 L 328.7 29.2 L 328.6 25.9 A 28.846 28.846 0 0 0 328.258 22.062 Q 327.568 17.815 325.537 15.463 A 8.447 8.447 0 0 0 325.3 15.2 A 9.04 9.04 0 0 0 321.975 13.018 Q 319.192 11.917 315.028 11.9 A 32.019 32.019 0 0 0 314.9 11.9 Q 310.718 11.9 307.719 12.765 A 13.768 13.768 0 0 0 305.1 13.8 A 10.573 10.573 0 0 0 300.102 19.483 A 13.535 13.535 0 0 0 300 19.75 A 20.535 20.535 0 0 0 299.116 23.003 Q 298.5 26.208 298.5 30.5 A 59.578 59.578 0 0 0 298.641 34.75 Q 298.933 38.822 299.832 41.511 A 14.591 14.591 0 0 0 300.1 42.25 A 11.057 11.057 0 0 0 301.73 45.12 A 8.866 8.866 0 0 0 305.3 47.8 A 16.574 16.574 0 0 0 308.21 48.684 Q 311.092 49.3 315 49.3 Q 317 49.3 319.2 49.15 Q 321.4 49 323.5 48.7 A 52.958 52.958 0 0 0 325.752 48.331 A 41.195 41.195 0 0 0 327.35 48 Q 328.972 47.629 329.863 47.173 A 4.562 4.562 0 0 0 330 47.1 L 330 47.9 A 1.551 1.551 0 0 1 329.509 49.045 A 2.071 2.071 0 0 1 329.45 49.1 A 1.896 1.896 0 0 1 329.091 49.346 Q 328.474 49.687 327.184 50.027 A 22.409 22.409 0 0 1 326.9 50.1 Q 324.4 50.6 321.3 50.9 Q 318.2 51.2 315 51.2 Q 309.9 51.2 306.3 50.35 A 13.762 13.762 0 0 1 303.222 49.246 A 10.801 10.801 0 0 1 300.45 47.25 Q 298.2 45 297.2 40.95 Q 296.52 38.197 296.303 34.359 A 68.322 68.322 0 0 1 296.2 30.5 Q 296.2 25.374 297.055 21.545 A 23.897 23.897 0 0 1 297.75 19.05 Q 299.3 14.5 303.4 12.25 Q 306.215 10.705 310.585 10.221 A 39.298 39.298 0 0 1 314.9 10 A 31.242 31.242 0 0 1 318.559 10.201 Q 321.803 10.584 324.1 11.7 Q 327.6 13.4 329.2 17.05 A 16.996 16.996 0 0 1 330.236 20.354 Q 330.588 22.018 330.721 23.963 A 35.98 35.98 0 0 1 330.8 26.4 Z" id="8" vector-effect="non-scaling-stroke"/><path d="M 343.9 14.1 L 343.9 50.5 L 343.3 50.5 A 2.952 2.952 0 0 1 342.813 50.462 Q 342.352 50.385 342.05 50.15 A 1.023 1.023 0 0 1 341.735 49.72 Q 341.6 49.392 341.6 48.9 L 341.6 12.6 Q 343.4 12 346.35 11.15 Q 349.168 10.338 354.04 10.302 A 61.801 61.801 0 0 1 354.5 10.3 A 45.376 45.376 0 0 1 357.074 10.368 Q 359.713 10.519 361.5 11 Q 364.1 11.7 365.3 12.85 A 6.045 6.045 0 0 1 366.257 14.013 A 4.821 4.821 0 0 1 366.85 15.4 Q 367.2 16.8 367.2 18.3 L 365 18.3 L 364.9 16.9 A 5.031 5.031 0 0 0 364.672 15.56 A 3.433 3.433 0 0 0 363.1 13.6 A 8.94 8.94 0 0 0 360.852 12.677 A 11.912 11.912 0 0 0 359.05 12.35 A 43.754 43.754 0 0 0 355.191 12.106 A 39.347 39.347 0 0 0 354.5 12.1 A 35.084 35.084 0 0 0 351.591 12.215 Q 349.819 12.363 348.3 12.7 A 30.786 30.786 0 0 0 346.489 13.157 Q 345.645 13.399 344.931 13.667 A 13.934 13.934 0 0 0 343.9 14.1 Z" id="9" vector-effect="non-scaling-stroke"/><path d="M 409.1 26.4 L 409.1 30.9 L 380.6 30.9 Q 380.6 30.2 381 29.7 A 1.173 1.173 0 0 1 381.486 29.35 Q 381.687 29.268 381.941 29.231 A 3.194 3.194 0 0 1 382.4 29.2 L 407 29.2 L 406.9 25.9 A 28.846 28.846 0 0 0 406.558 22.062 Q 405.868 17.815 403.837 15.463 A 8.447 8.447 0 0 0 403.6 15.2 A 9.04 9.04 0 0 0 400.275 13.018 Q 397.492 11.917 393.328 11.9 A 32.019 32.019 0 0 0 393.2 11.9 Q 389.018 11.9 386.019 12.765 A 13.768 13.768 0 0 0 383.4 13.8 A 10.573 10.573 0 0 0 378.402 19.483 A 13.535 13.535 0 0 0 378.3 19.75 A 20.535 20.535 0 0 0 377.416 23.003 Q 376.8 26.208 376.8 30.5 A 59.578 59.578 0 0 0 376.941 34.75 Q 377.233 38.822 378.132 41.511 A 14.591 14.591 0 0 0 378.4 42.25 A 11.057 11.057 0 0 0 380.03 45.12 A 8.866 8.866 0 0 0 383.6 47.8 A 16.574 16.574 0 0 0 386.51 48.684 Q 389.392 49.3 393.3 49.3 Q 395.3 49.3 397.5 49.15 Q 399.7 49 401.8 48.7 A 52.958 52.958 0 0 0 404.052 48.331 A 41.195 41.195 0 0 0 405.65 48 Q 407.272 47.629 408.163 47.173 A 4.562 4.562 0 0 0 408.3 47.1 L 408.3 47.9 A 1.551 1.551 0 0 1 407.809 49.045 A 2.071 2.071 0 0 1 407.75 49.1 A 1.896 1.896 0 0 1 407.391 49.346 Q 406.774 49.687 405.484 50.027 A 22.409 22.409 0 0 1 405.2 50.1 Q 402.7 50.6 399.6 50.9 Q 396.5 51.2 393.3 51.2 Q 388.2 51.2 384.6 50.35 A 13.762 13.762 0 0 1 381.522 49.246 A 10.801 10.801 0 0 1 378.75 47.25 Q 376.5 45 375.5 40.95 Q 374.82 38.197 374.603 34.359 A 68.322 68.322 0 0 1 374.5 30.5 Q 374.5 25.374 375.355 21.545 A 23.897 23.897 0 0 1 376.05 19.05 Q 377.6 14.5 381.7 12.25 Q 384.515 10.705 388.885 10.221 A 39.298 39.298 0 0 1 393.2 10 A 31.242 31.242 0 0 1 396.859 10.201 Q 400.103 10.584 402.4 11.7 Q 405.9 13.4 407.5 17.05 A 16.996 16.996 0 0 1 408.536 20.354 Q 408.888 22.018 409.021 23.963 A 35.98 35.98 0 0 1 409.1 26.4 Z" id="10" vector-effect="non-scaling-stroke"/><path d="M 451.5 11.4 L 450.4 12.1 L 450.4 0 L 452.5 0 L 452.4 30.4 Q 452.4 37.1 451.7 41.15 Q 451.241 43.808 450.308 45.604 A 8.227 8.227 0 0 1 449.2 47.25 Q 447.4 49.3 444.05 50 A 27.952 27.952 0 0 1 441.516 50.399 Q 438.878 50.7 435.4 50.7 Q 431.672 50.7 428.842 50.324 A 28.836 28.836 0 0 1 427.15 50.05 A 12.216 12.216 0 0 1 424.564 49.261 A 8.939 8.939 0 0 1 421.8 47.4 A 8.415 8.415 0 0 1 420.323 45.35 Q 419.801 44.357 419.414 43.116 A 19.347 19.347 0 0 1 418.95 41.3 Q 418.139 37.387 418.102 30.833 A 112.057 112.057 0 0 1 418.1 30.2 A 52.754 52.754 0 0 1 418.276 25.73 Q 418.65 21.354 419.814 18.502 A 13.623 13.623 0 0 1 420.1 17.85 Q 422.1 13.6 426.05 12.05 A 20.778 20.778 0 0 1 429.989 10.964 Q 431.914 10.62 434.127 10.531 A 39.281 39.281 0 0 1 435.7 10.5 A 56.484 56.484 0 0 1 436.509 10.506 Q 437.629 10.522 439.144 10.58 A 184.701 184.701 0 0 1 439.65 10.6 Q 442.1 10.7 444.65 10.85 A 295.155 295.155 0 0 1 446.471 10.963 Q 447.913 11.056 449.1 11.15 Q 451 11.3 451.5 11.4 Z M 450.4 30.9 L 450.4 13 Q 449.328 12.923 447.524 12.818 A 572.848 572.848 0 0 0 446.35 12.75 Q 443.7 12.6 440.85 12.45 A 126.575 126.575 0 0 0 438.818 12.359 Q 437.815 12.322 436.926 12.308 A 66.478 66.478 0 0 0 435.9 12.3 A 32.197 32.197 0 0 0 432.418 12.477 Q 429.314 12.816 427.05 13.8 Q 423.6 15.3 421.95 19.25 Q 420.3 23.2 420.3 30.6 Q 420.3 38.5 421.5 42.4 A 10.516 10.516 0 0 0 422.487 44.679 A 6.876 6.876 0 0 0 425.75 47.6 A 13.563 13.563 0 0 0 428.113 48.34 Q 430.583 48.891 433.992 48.9 A 42.898 42.898 0 0 0 434.1 48.9 Q 439.6 48.9 442.85 48.3 Q 446.1 47.7 447.75 45.85 Q 449.051 44.392 449.637 41.877 A 16.318 16.318 0 0 0 449.9 40.45 A 41.173 41.173 0 0 0 450.164 37.992 Q 450.4 35.025 450.4 30.9 Z" id="11" vector-effect="non-scaling-stroke"/><path d="M 488.5 47 L 488.5 45.9 Q 490.222 47.259 492.888 47.962 A 18.106 18.106 0 0 0 493.45 48.1 A 38.801 38.801 0 0 0 499.697 48.994 A 42.475 42.475 0 0 0 499.8 49 Q 502.327 49.153 504.326 49.189 A 65.513 65.513 0 0 0 505.5 49.2 L 507.35 49.2 Q 508.3 49.2 509.2 49.1 A 46.66 46.66 0 0 0 513.458 48.737 Q 515.588 48.451 517.445 47.968 A 28.052 28.052 0 0 0 517.7 47.9 Q 521.4 46.9 523.5 44.35 A 8.314 8.314 0 0 0 524.972 41.577 Q 525.362 40.365 525.51 38.893 A 18.964 18.964 0 0 0 525.6 37 A 18.212 18.212 0 0 0 525.438 34.468 Q 525.03 31.572 523.592 30.158 A 4.404 4.404 0 0 0 522.65 29.45 A 10.888 10.888 0 0 0 520.2 28.477 Q 517.801 27.821 514.419 27.801 A 36.164 36.164 0 0 0 514.2 27.8 L 510.7 27.8 L 507.1 27.8 L 503.5 27.8 Q 500.9 27.8 498.2 27.55 A 17.529 17.529 0 0 1 494.85 26.92 A 15.077 15.077 0 0 1 493.25 26.35 Q 491 25.4 489.65 23.25 A 7.656 7.656 0 0 1 488.801 21.303 Q 488.527 20.359 488.403 19.22 A 18.667 18.667 0 0 1 488.3 17.2 A 19.613 19.613 0 0 1 488.488 14.391 Q 488.699 12.936 489.147 11.744 A 8.946 8.946 0 0 1 490.05 9.95 Q 491.8 7.3 494.85 6.05 A 21.612 21.612 0 0 1 498.754 4.883 A 27.632 27.632 0 0 1 501.75 4.45 Q 505.6 4.1 509.8 4.1 A 100.771 100.771 0 0 1 512.131 4.129 Q 513.722 4.166 515.55 4.25 A 53.49 53.49 0 0 1 521.046 4.78 A 48.451 48.451 0 0 1 521.8 4.9 A 16.743 16.743 0 0 1 523.709 5.326 Q 525.384 5.813 526.5 6.6 Q 526.893 6.836 527.162 7.071 A 2.834 2.834 0 0 1 527.3 7.2 A 1.004 1.004 0 0 1 527.579 7.749 A 1.432 1.432 0 0 1 527.6 8 L 527.6 8.6 L 527.6 9.2 L 527.6 9.8 A 5.17 5.17 0 0 0 526.526 8.844 Q 526.003 8.488 525.342 8.189 A 11.037 11.037 0 0 0 524.5 7.85 Q 522.4 7.1 519.9 6.7 Q 517.4 6.3 515.1 6.15 Q 513.043 6.016 511.705 6.002 A 28.879 28.879 0 0 0 511.4 6 L 507.4 6 A 49.304 49.304 0 0 0 500.806 6.429 A 44.377 44.377 0 0 0 499.35 6.65 A 13.357 13.357 0 0 0 496.048 7.633 A 10.631 10.631 0 0 0 493.05 9.65 Q 491.165 11.458 490.73 14.893 A 17.604 17.604 0 0 0 490.6 17.1 A 15.405 15.405 0 0 0 490.731 19.18 Q 491.057 21.566 492.198 22.89 A 4.639 4.639 0 0 0 492.25 22.95 Q 493.9 24.8 496.85 25.3 Q 499.604 25.767 503.099 25.798 A 56.486 56.486 0 0 0 503.6 25.8 L 508.75 25.8 L 513.8 25.8 Q 517.9 25.8 521.15 26.5 A 9.368 9.368 0 0 1 523.95 27.565 A 8.012 8.012 0 0 1 526.25 29.6 Q 527.982 31.847 528.092 36.548 A 27.756 27.756 0 0 1 528.1 37.2 A 17.81 17.81 0 0 1 527.824 40.44 Q 527.484 42.273 526.728 43.723 A 9.182 9.182 0 0 1 525.65 45.35 A 12.464 12.464 0 0 1 520.784 48.891 A 15.952 15.952 0 0 1 519.05 49.5 Q 514.932 50.691 509.683 50.995 A 58.074 58.074 0 0 1 509.6 51 A 20.417 20.417 0 0 1 508.044 51.094 A 23.389 23.389 0 0 1 507.5 51.1 L 505.3 51.1 Q 504.228 51.1 502.365 51.012 A 166.296 166.296 0 0 1 501.15 50.95 A 67.999 67.999 0 0 1 496.223 50.496 A 74.581 74.581 0 0 1 495.5 50.4 A 28.311 28.311 0 0 1 493.284 50.009 Q 492.17 49.764 491.218 49.442 A 15.232 15.232 0 0 1 490.55 49.2 A 5.667 5.667 0 0 1 489.714 48.799 Q 489.306 48.557 489.035 48.274 A 1.792 1.792 0 0 1 488.5 47 Z" id="13" vector-effect="non-scaling-stroke"/><path d="M 552.181 50.788 A 42.352 42.352 0 0 0 556.5 51 Q 560.3 51 563.55 50.4 Q 566.8 49.8 569.25 47.8 A 9.225 9.225 0 0 0 570.389 46.688 Q 571.283 45.656 571.992 44.271 A 18.009 18.009 0 0 0 573.05 41.7 Q 573.978 38.881 574.268 34.692 A 59.429 59.429 0 0 0 574.4 30.6 A 57.414 57.414 0 0 0 574.255 26.373 Q 574.109 24.411 573.819 22.75 A 22.502 22.502 0 0 0 573.05 19.6 A 20.477 20.477 0 0 0 572.658 18.511 Q 572.087 17.06 571.358 15.905 A 10.42 10.42 0 0 0 569.25 13.45 Q 566.8 11.4 563.55 10.8 A 34.349 34.349 0 0 0 560.819 10.412 A 42.352 42.352 0 0 0 556.5 10.2 Q 552.7 10.2 549.45 10.8 Q 546.2 11.4 543.75 13.45 Q 541.3 15.5 539.95 19.6 A 17.422 17.422 0 0 0 539.935 19.646 Q 539.02 22.452 538.732 26.561 A 57.995 57.995 0 0 0 538.6 30.6 A 57.414 57.414 0 0 0 538.745 34.827 Q 538.891 36.789 539.181 38.45 A 22.502 22.502 0 0 0 539.95 41.6 A 20.477 20.477 0 0 0 540.342 42.689 Q 540.913 44.14 541.642 45.295 A 10.42 10.42 0 0 0 543.75 47.75 Q 546.2 49.8 549.45 50.4 A 34.349 34.349 0 0 0 552.181 50.788 Z M 556.5 49.2 A 31.062 31.062 0 0 0 560.319 48.978 Q 562.316 48.73 564.026 48.206 A 17.736 17.736 0 0 0 564.8 47.95 A 8.752 8.752 0 0 0 569.104 44.582 A 12.466 12.466 0 0 0 570.15 42.75 Q 572 38.8 572 30.6 Q 572 22.4 570.15 18.45 A 11.705 11.705 0 0 0 568.53 15.867 A 8.571 8.571 0 0 0 564.8 13.25 Q 561.649 12.125 557.443 12.012 A 35.401 35.401 0 0 0 556.5 12 A 31.048 31.048 0 0 0 552.823 12.206 Q 550.93 12.432 549.304 12.906 A 17.358 17.358 0 0 0 548.25 13.25 A 8.801 8.801 0 0 0 544.128 16.392 A 12.68 12.68 0 0 0 542.9 18.45 Q 541.236 21.909 541.029 28.627 A 64.166 64.166 0 0 0 541 30.6 Q 541 37.692 542.421 41.605 A 12.436 12.436 0 0 0 542.9 42.75 Q 544.8 46.7 548.25 47.95 Q 551.328 49.065 555.48 49.185 A 35.222 35.222 0 0 0 556.5 49.2 Z" id="14" vector-effect="non-scaling-stroke"/><path d="M 586.1 42.3 L 586.1 2.1 Q 586.1 1.5 586.2 1 A 1.72 1.72 0 0 1 586.296 0.676 Q 586.375 0.486 586.497 0.35 A 0.966 0.966 0 0 1 586.6 0.25 Q 586.9 0 587.5 0 L 588.4 0 L 588.35 0.75 Q 588.3 1.5 588.3 3 L 588.3 41.6 Q 588.3 44.748 588.821 46.528 A 6.183 6.183 0 0 0 589.1 47.3 A 2.837 2.837 0 0 0 591.047 48.923 Q 591.685 49.1 592.5 49.1 A 5.717 5.717 0 0 0 592.781 49.092 Q 593.316 49.065 594.35 48.95 Q 595.7 48.8 596.1 48.6 L 596.1 50.3 L 594.6 50.6 Q 593.646 50.791 592.054 50.8 A 28.097 28.097 0 0 1 591.9 50.8 A 8.163 8.163 0 0 1 590.254 50.645 Q 588.41 50.265 587.45 48.95 A 5.191 5.191 0 0 1 586.767 47.592 Q 586.282 46.199 586.15 44.037 A 28.449 28.449 0 0 1 586.1 42.3 Z" id="15" vector-effect="non-scaling-stroke"/><path d="M 605.4 10.6 L 605.4 38.4 A 15.307 15.307 0 0 0 605.681 41.442 Q 606.028 43.153 606.806 44.44 A 7.171 7.171 0 0 0 608.95 46.7 A 11.809 11.809 0 0 0 612.06 48.151 Q 615.098 49.1 619.5 49.1 Q 626.082 49.1 629.522 47.237 A 8.694 8.694 0 0 0 630.6 46.55 A 7.988 7.988 0 0 0 633.439 42.411 Q 633.86 41.065 633.965 39.425 A 17.574 17.574 0 0 0 634 38.3 L 634 10.6 L 634.25 10.6 L 634.5 10.6 L 634.75 10.6 L 635 10.6 Q 635.6 10.6 635.85 10.75 A 0.594 0.594 0 0 1 636.106 11.069 A 0.91 0.91 0 0 1 636.15 11.25 A 3.687 3.687 0 0 1 636.174 11.475 Q 636.194 11.721 636.199 12.074 A 17.22 17.22 0 0 1 636.2 12.3 L 636.2 37.3 Q 636.2 41.7 634.85 44.75 A 8.364 8.364 0 0 1 631.665 48.413 A 11.738 11.738 0 0 1 629.9 49.35 Q 626.64 50.754 620.756 50.886 A 55.778 55.778 0 0 1 619.5 50.9 A 43.577 43.577 0 0 1 615.821 50.755 Q 612.319 50.457 609.9 49.55 A 10.921 10.921 0 0 1 607.27 48.158 A 8.414 8.414 0 0 1 604.75 45.25 A 11.977 11.977 0 0 1 603.746 42.531 Q 603.2 40.309 603.2 37.4 L 603.2 12.3 A 6.309 6.309 0 0 1 603.214 11.867 Q 603.242 11.455 603.33 11.197 A 0.945 0.945 0 0 1 603.45 10.95 A 0.725 0.725 0 0 1 603.762 10.708 Q 604.004 10.603 604.377 10.6 A 2.752 2.752 0 0 1 604.4 10.6 L 604.9 10.6 L 605.4 10.6 Z" id="16" vector-effect="non-scaling-stroke"/><path d="M 649.5 42.9 L 649.5 12.2 L 645.9 12.2 L 645.9 10.6 L 649.5 10.6 L 649.5 2.1 A 8.676 8.676 0 0 1 649.512 1.629 Q 649.536 1.193 649.607 0.9 A 1.897 1.897 0 0 1 649.65 0.75 Q 649.75 0.449 649.918 0.282 A 0.703 0.703 0 0 1 650.1 0.15 A 1.397 1.397 0 0 1 650.508 0.022 A 1.859 1.859 0 0 1 650.8 0 L 651.8 0 L 651.75 0.7 Q 651.7 1.4 651.7 2.9 L 651.7 10.6 L 660.8 10.6 L 660.8 12.2 L 651.7 12.2 L 651.7 42.3 Q 651.7 45.207 652.172 46.753 A 4.212 4.212 0 0 0 652.55 47.65 Q 653.4 49.1 655.9 49.1 A 12.539 12.539 0 0 0 657.17 49.038 A 9.817 9.817 0 0 0 658.1 48.9 Q 659.021 48.716 659.433 48.616 A 8.295 8.295 0 0 0 659.5 48.6 L 659.5 50.3 Q 659.009 50.398 657.988 50.593 A 460.235 460.235 0 0 1 657.95 50.6 A 10.505 10.505 0 0 1 656.964 50.737 Q 656.457 50.784 655.887 50.796 A 18.586 18.586 0 0 1 655.5 50.8 A 10.341 10.341 0 0 1 654.151 50.717 Q 653.449 50.625 652.866 50.429 A 4.909 4.909 0 0 1 652.1 50.1 Q 650.849 49.426 650.199 47.779 A 6.989 6.989 0 0 1 650.15 47.65 Q 649.503 45.909 649.5 42.931 A 27.421 27.421 0 0 1 649.5 42.9 Z" id="17" vector-effect="non-scaling-stroke"/><path d="M 670.2 41.9 L 670.2 10.6 L 672.4 10.6 L 672.4 41.6 Q 672.4 45.793 673.148 47.368 A 2.852 2.852 0 0 0 673.3 47.65 Q 674.081 48.909 675.993 49.075 A 7.021 7.021 0 0 0 676.6 49.1 A 5.717 5.717 0 0 0 676.881 49.092 Q 677.416 49.065 678.45 48.95 Q 679.8 48.8 680.2 48.6 L 680.2 50.3 Q 679.974 50.375 679.52 50.451 A 14.253 14.253 0 0 1 679.2 50.5 Q 678.5 50.6 677.6 50.7 A 16.553 16.553 0 0 1 676.224 50.793 A 19.219 19.219 0 0 1 675.7 50.8 A 7.369 7.369 0 0 1 674.081 50.636 Q 673.117 50.418 672.435 49.913 A 3.67 3.67 0 0 1 671.25 48.4 A 10.697 10.697 0 0 1 670.62 46.408 Q 670.397 45.392 670.292 44.183 A 26.518 26.518 0 0 1 670.2 41.9 Z M 670.57 4.094 A 2.676 2.676 0 0 0 671.3 4.2 A 2.637 2.637 0 0 0 671.952 4.115 A 3.473 3.473 0 0 0 672.55 3.9 Q 673.2 3.6 673.2 2.6 A 4.26 4.26 0 0 0 673.194 2.371 Q 673.166 1.857 673.009 1.548 A 0.806 0.806 0 0 0 672.6 1.15 A 3.145 3.145 0 0 0 671.884 0.951 A 4.338 4.338 0 0 0 671.2 0.9 A 3.051 3.051 0 0 0 670.896 0.915 A 2.467 2.467 0 0 0 669.95 1.2 A 0.807 0.807 0 0 0 669.762 1.342 Q 669.505 1.602 669.43 2.128 A 3.386 3.386 0 0 0 669.4 2.6 Q 669.4 2.976 669.492 3.253 A 1.033 1.033 0 0 0 670.05 3.9 A 3.544 3.544 0 0 0 670.57 4.094 Z" id="18" vector-effect="non-scaling-stroke"/><path d="M 699.681 50.788 A 42.352 42.352 0 0 0 704 51 Q 707.8 51 711.05 50.4 Q 714.3 49.8 716.75 47.8 A 9.225 9.225 0 0 0 717.889 46.688 Q 718.783 45.656 719.492 44.271 A 18.009 18.009 0 0 0 720.55 41.7 Q 721.478 38.881 721.768 34.692 A 59.429 59.429 0 0 0 721.9 30.6 A 57.414 57.414 0 0 0 721.755 26.373 Q 721.609 24.411 721.319 22.75 A 22.502 22.502 0 0 0 720.55 19.6 A 20.477 20.477 0 0 0 720.158 18.511 Q 719.587 17.06 718.858 15.905 A 10.42 10.42 0 0 0 716.75 13.45 Q 714.3 11.4 711.05 10.8 A 34.349 34.349 0 0 0 708.319 10.412 A 42.352 42.352 0 0 0 704 10.2 Q 700.2 10.2 696.95 10.8 Q 693.7 11.4 691.25 13.45 Q 688.8 15.5 687.45 19.6 A 17.422 17.422 0 0 0 687.435 19.646 Q 686.52 22.452 686.232 26.561 A 57.995 57.995 0 0 0 686.1 30.6 A 57.414 57.414 0 0 0 686.245 34.827 Q 686.391 36.789 686.681 38.45 A 22.502 22.502 0 0 0 687.45 41.6 A 20.477 20.477 0 0 0 687.842 42.689 Q 688.413 44.14 689.142 45.295 A 10.42 10.42 0 0 0 691.25 47.75 Q 693.7 49.8 696.95 50.4 A 34.349 34.349 0 0 0 699.681 50.788 Z M 704 49.2 A 31.062 31.062 0 0 0 707.819 48.978 Q 709.816 48.73 711.526 48.206 A 17.736 17.736 0 0 0 712.3 47.95 A 8.752 8.752 0 0 0 716.604 44.582 A 12.466 12.466 0 0 0 717.65 42.75 Q 719.5 38.8 719.5 30.6 Q 719.5 22.4 717.65 18.45 A 11.705 11.705 0 0 0 716.03 15.867 A 8.571 8.571 0 0 0 712.3 13.25 Q 709.149 12.125 704.943 12.012 A 35.401 35.401 0 0 0 704 12 A 31.048 31.048 0 0 0 700.323 12.206 Q 698.43 12.432 696.804 12.906 A 17.358 17.358 0 0 0 695.75 13.25 A 8.801 8.801 0 0 0 691.628 16.392 A 12.68 12.68 0 0 0 690.4 18.45 Q 688.736 21.909 688.529 28.627 A 64.166 64.166 0 0 0 688.5 30.6 Q 688.5 37.692 689.921 41.605 A 12.436 12.436 0 0 0 690.4 42.75 Q 692.3 46.7 695.75 47.95 Q 698.828 49.065 702.98 49.185 A 35.222 35.222 0 0 0 704 49.2 Z" id="19" vector-effect="non-scaling-stroke"/><path d="M 736.1 50.5 L 735.3 50.5 A 2.015 2.015 0 0 1 734.746 50.431 Q 734.125 50.253 733.96 49.618 A 2.063 2.063 0 0 1 733.9 49.1 L 733.9 13.8 Q 736.613 12.397 740.289 11.387 A 46.82 46.82 0 0 1 740.8 11.25 Q 744.8 10.2 750.3 10.2 A 54.223 54.223 0 0 1 753.393 10.283 Q 754.857 10.367 756.108 10.536 A 22.795 22.795 0 0 1 758.15 10.9 A 17.226 17.226 0 0 1 760.087 11.458 Q 761.784 12.064 762.9 12.95 Q 764.6 14.3 765.25 16.35 Q 765.859 18.272 765.897 20.765 A 21.932 21.932 0 0 1 765.9 21.1 L 765.9 49.1 A 1.884 1.884 0 0 1 765.75 49.85 Q 765.6 50.2 765.25 50.35 Q 764.9 50.5 764.4 50.5 L 763.7 50.5 L 763.7 21 A 10.861 10.861 0 0 0 763.397 18.353 A 7.019 7.019 0 0 0 760.75 14.3 A 8.33 8.33 0 0 0 758.53 13.164 Q 756.233 12.353 752.658 12.16 A 43.836 43.836 0 0 0 750.3 12.1 Q 748 12.1 745.25 12.45 A 41.303 41.303 0 0 0 741.294 13.144 A 36.158 36.158 0 0 0 740.05 13.45 A 15.825 15.825 0 0 0 738.346 14.001 Q 737.487 14.337 736.788 14.748 A 8.187 8.187 0 0 0 736.1 15.2 L 736.1 50.5 Z" id="20" vector-effect="non-scaling-stroke"/><path d="M 798.1 30.8 L 788.8 30.8 Q 785.7 30.8 782.65 30.35 A 9.835 9.835 0 0 1 779.616 29.41 A 8.675 8.675 0 0 1 777.55 27.95 Q 776.056 26.528 775.651 23.752 A 15.647 15.647 0 0 1 775.5 21.5 A 16.603 16.603 0 0 1 775.712 18.756 Q 776.213 15.773 777.9 14.05 Q 780.229 11.673 784.299 10.896 A 18.373 18.373 0 0 1 784.55 10.85 A 46.538 46.538 0 0 1 788.809 10.312 Q 791.047 10.127 793.553 10.104 A 78.802 78.802 0 0 1 794.3 10.1 Q 795.675 10.1 797.452 10.171 A 134.098 134.098 0 0 1 799.15 10.25 A 40.212 40.212 0 0 1 804.252 10.857 A 44.807 44.807 0 0 1 805 11 Q 806.4 11.2 807.45 11.55 Q 808.5 11.9 809.1 12.35 A 1.604 1.604 0 0 1 809.476 12.738 A 1.338 1.338 0 0 1 809.7 13.5 L 809.7 15.1 A 6.056 6.056 0 0 0 808.353 14.099 Q 807.62 13.691 806.7 13.4 A 25.395 25.395 0 0 0 804.303 12.776 A 32.059 32.059 0 0 0 802.5 12.45 Q 800.2 12.1 797.8 12 A 116.935 116.935 0 0 0 794.917 11.914 A 95.476 95.476 0 0 0 793.3 11.9 Q 789.5 11.9 785.85 12.4 A 13.913 13.913 0 0 0 783.011 13.08 A 10.015 10.015 0 0 0 779.9 14.85 Q 778.139 16.343 777.726 19.391 A 15.011 15.011 0 0 0 777.6 21.4 A 13.389 13.389 0 0 0 777.715 23.218 Q 777.997 25.273 778.976 26.416 A 4.001 4.001 0 0 0 779.05 26.5 Q 780.5 28.1 783.05 28.55 Q 785.6 29 788.9 29 L 797.7 29 A 37.08 37.08 0 0 1 801.012 29.141 Q 802.674 29.29 804.139 29.598 A 23.542 23.542 0 0 1 804.15 29.6 A 8.133 8.133 0 0 1 806.538 30.487 A 6.861 6.861 0 0 1 808.6 32.3 A 6.393 6.393 0 0 1 809.527 34.086 Q 810.2 36.017 810.2 39 Q 810.2 44 807.55 46.6 A 12.203 12.203 0 0 1 803.667 49.131 A 17.081 17.081 0 0 1 800.45 50.1 A 43.994 43.994 0 0 1 795.426 50.802 A 58.734 58.734 0 0 1 790.5 51 Q 789.505 51 787.835 50.941 A 191.181 191.181 0 0 1 786.75 50.9 Q 784.3 50.8 781.65 50.4 A 20.841 20.841 0 0 1 779.235 49.895 A 15.379 15.379 0 0 1 777 49.1 A 6.467 6.467 0 0 1 776.69 48.935 Q 776.33 48.73 776.15 48.55 A 0.904 0.904 0 0 1 775.96 48.261 Q 775.905 48.133 775.875 47.976 A 1.988 1.988 0 0 1 775.85 47.8 A 8.237 8.237 0 0 1 775.824 47.458 Q 775.8 47.05 775.8 46.5 A 8.032 8.032 0 0 0 777.306 47.376 Q 778.069 47.722 778.995 47.989 A 17.591 17.591 0 0 0 780.25 48.3 Q 783.1 48.9 786 49.05 Q 788.22 49.165 789.679 49.192 A 44.765 44.765 0 0 0 790.5 49.2 A 69.038 69.038 0 0 0 794.824 49.07 A 55.987 55.987 0 0 0 797.4 48.85 A 22.66 22.66 0 0 0 800.224 48.368 A 16.557 16.557 0 0 0 803 47.45 Q 805.4 46.4 806.75 44.3 Q 808.1 42.2 808.1 38.8 A 15.69 15.69 0 0 0 807.954 36.571 Q 807.591 34.051 806.322 32.831 A 3.84 3.84 0 0 0 805.45 32.2 A 10.362 10.362 0 0 0 803.174 31.347 Q 801.037 30.8 798.1 30.8 Z" id="21" vector-effect="non-scaling-stroke"/></g></svg>