<svg width="2999.439" height="245.069" viewBox="0 0 2999.439 245.069" xmlns="http://www.w3.org/2000/svg"><g id="svgGroup" stroke-linecap="round" fill-rule="evenodd" font-size="9pt" stroke="#000" stroke-width="0.25mm" fill="#000000" style="stroke:#000;stroke-width:0.25mm;fill:#000000"><path d="M 668.897 245.069 L 658.472 245.069 L 567.041 65.454 L 567.041 245.069 L 532.007 245.069 L 532.007 0 L 570.289 0 L 663.599 184.571 L 757.081 0 L 795.191 0 L 795.191 245.069 L 760.328 245.069 L 760.328 65.454 L 668.897 245.069 Z M 1236.451 210.035 L 1236.451 35.035 A 34.258 34.258 0 0 1 1239.185 21.448 A 34.2 34.2 0 0 1 1246.705 10.34 A 37.177 37.177 0 0 1 1257.898 2.82 Q 1264.307 0 1271.485 0 L 1404.444 0 Q 1411.622 0 1418.03 2.82 A 37.177 37.177 0 0 1 1429.224 10.34 Q 1434.009 15.039 1436.744 21.448 Q 1439.478 27.857 1439.478 35.035 L 1439.478 66.651 L 1404.444 66.651 L 1404.444 35.035 L 1271.485 35.035 L 1271.485 210.035 L 1404.444 210.035 L 1404.444 150.562 L 1337.964 150.562 L 1337.964 115.528 L 1439.478 115.528 L 1439.478 210.035 A 34.258 34.258 0 0 1 1436.744 223.621 A 35.192 35.192 0 0 1 1429.224 234.815 A 35.192 35.192 0 0 1 1418.03 242.334 Q 1411.622 245.069 1404.444 245.069 L 1271.485 245.069 A 34.258 34.258 0 0 1 1257.898 242.334 A 35.192 35.192 0 0 1 1246.705 234.815 A 35.192 35.192 0 0 1 1239.185 223.621 Q 1236.451 217.212 1236.451 210.035 Z M 991.211 55.03 L 991.211 245.069 L 956.177 245.069 L 956.177 0 L 991.211 0 L 1138.526 190.039 L 1138.526 0 L 1173.56 0 L 1173.56 245.069 L 1138.526 245.069 L 991.211 55.03 Z M 1740.259 55.03 L 1740.259 245.069 L 1705.225 245.069 L 1705.225 0 L 1740.259 0 L 1887.574 190.039 L 1887.574 0 L 1922.608 0 L 1922.608 245.069 L 1887.574 245.069 L 1740.259 55.03 Z M 2232.959 35.035 L 2122.046 35.035 L 2122.046 66.651 L 2087.012 66.651 L 2087.012 35.035 A 34.258 34.258 0 0 1 2089.747 21.448 A 34.2 34.2 0 0 1 2097.266 10.34 A 37.177 37.177 0 0 1 2108.46 2.82 Q 2114.869 0 2122.046 0 L 2232.959 0 Q 2240.137 0 2246.546 2.82 A 36.103 36.103 0 0 1 2257.581 10.266 A 34.846 34.846 0 0 1 2257.654 10.34 A 36.078 36.078 0 0 1 2265.163 21.423 A 40.078 40.078 0 0 1 2265.174 21.448 Q 2267.994 27.857 2267.994 35.035 L 2267.994 79.81 Q 2267.994 86.869 2266.671 92.44 A 40.027 40.027 0 0 1 2266.626 92.627 A 32.53 32.53 0 0 1 2263.333 101.058 A 30.06 30.06 0 0 1 2262.269 102.796 A 33.562 33.562 0 0 1 2255.792 110.002 A 38.448 38.448 0 0 1 2254.664 110.913 A 53.278 53.278 0 0 1 2249.712 114.31 Q 2247.182 115.855 2244.235 117.329 A 89.196 89.196 0 0 1 2243.384 117.749 L 2122.046 174.659 L 2122.046 210.035 L 2237.403 210.035 L 2237.403 178.589 L 2272.437 178.589 L 2272.437 245.069 L 2087.012 245.069 L 2087.012 180.64 A 60.699 60.699 0 0 1 2087.353 174.047 A 44.247 44.247 0 0 1 2088.465 167.823 Q 2089.917 162.183 2092.823 157.74 A 32.246 32.246 0 0 1 2097.918 151.757 A 38.996 38.996 0 0 1 2100.428 149.622 A 55.274 55.274 0 0 1 2106.229 145.678 A 70.878 70.878 0 0 1 2111.451 142.871 L 2232.959 85.791 L 2232.959 35.035 Z M 2729.932 35.035 L 2619.019 35.035 L 2619.019 66.651 L 2583.985 66.651 L 2583.985 35.035 A 34.258 34.258 0 0 1 2586.719 21.448 A 34.2 34.2 0 0 1 2594.239 10.34 A 37.177 37.177 0 0 1 2605.433 2.82 Q 2611.841 0 2619.019 0 L 2729.932 0 Q 2737.11 0 2743.519 2.82 A 36.103 36.103 0 0 1 2754.553 10.266 A 34.846 34.846 0 0 1 2754.627 10.34 A 36.078 36.078 0 0 1 2762.135 21.423 A 40.078 40.078 0 0 1 2762.146 21.448 Q 2764.966 27.857 2764.966 35.035 L 2764.966 79.81 Q 2764.966 86.869 2763.644 92.44 A 40.027 40.027 0 0 1 2763.599 92.627 A 32.53 32.53 0 0 1 2760.306 101.058 A 30.06 30.06 0 0 1 2759.241 102.796 A 33.562 33.562 0 0 1 2752.764 110.002 A 38.448 38.448 0 0 1 2751.636 110.913 A 53.278 53.278 0 0 1 2746.685 114.31 Q 2744.155 115.855 2741.208 117.329 A 89.196 89.196 0 0 1 2740.357 117.749 L 2619.019 174.659 L 2619.019 210.035 L 2734.375 210.035 L 2734.375 178.589 L 2769.41 178.589 L 2769.41 245.069 L 2583.985 245.069 L 2583.985 180.64 A 60.699 60.699 0 0 1 2584.326 174.047 A 44.247 44.247 0 0 1 2585.437 167.823 Q 2586.89 162.183 2589.795 157.74 A 32.246 32.246 0 0 1 2594.891 151.757 A 38.996 38.996 0 0 1 2597.4 149.622 A 55.274 55.274 0 0 1 2603.201 145.678 A 70.878 70.878 0 0 1 2608.423 142.871 L 2729.932 85.791 L 2729.932 35.035 Z M 0 210.035 L 0 35.035 A 34.258 34.258 0 0 1 2.735 21.448 A 34.2 34.2 0 0 1 10.254 10.34 A 37.177 37.177 0 0 1 21.448 2.82 Q 27.857 0 35.035 0 L 167.994 0 Q 175.171 0 181.58 2.82 A 37.177 37.177 0 0 1 192.774 10.34 Q 197.559 15.039 200.293 21.448 Q 203.028 27.857 203.028 35.035 L 203.028 66.651 L 167.994 66.651 L 167.994 35.035 L 35.035 35.035 L 35.035 210.035 L 167.994 210.035 L 167.994 178.589 L 203.028 178.589 L 203.028 210.035 A 34.258 34.258 0 0 1 200.293 223.621 A 35.192 35.192 0 0 1 192.774 234.815 A 35.192 35.192 0 0 1 181.58 242.334 Q 175.171 245.069 167.994 245.069 L 35.035 245.069 A 34.258 34.258 0 0 1 21.448 242.334 A 35.192 35.192 0 0 1 10.254 234.815 A 35.192 35.192 0 0 1 2.735 223.621 Q 0 217.212 0 210.035 Z M 469.117 35.035 L 469.117 210.035 A 34.258 34.258 0 0 1 466.382 223.621 A 35.192 35.192 0 0 1 458.863 234.815 A 35.192 35.192 0 0 1 447.669 242.334 Q 441.26 245.069 434.082 245.069 L 294.117 245.069 A 34.258 34.258 0 0 1 280.53 242.334 A 35.192 35.192 0 0 1 269.336 234.815 A 35.192 35.192 0 0 1 261.817 223.621 Q 259.082 217.212 259.082 210.035 L 259.082 35.035 A 34.258 34.258 0 0 1 261.817 21.448 A 34.2 34.2 0 0 1 269.336 10.34 A 37.177 37.177 0 0 1 280.53 2.82 Q 286.939 0 294.117 0 L 434.082 0 Q 441.26 0 447.669 2.82 A 37.177 37.177 0 0 1 458.863 10.34 Q 463.648 15.039 466.382 21.448 Q 469.117 27.857 469.117 35.035 Z M 2524.512 35.035 L 2524.512 210.035 A 34.258 34.258 0 0 1 2521.778 223.621 A 35.192 35.192 0 0 1 2514.258 234.815 A 35.192 35.192 0 0 1 2503.064 242.334 Q 2496.656 245.069 2489.478 245.069 L 2366.944 245.069 A 34.258 34.258 0 0 1 2353.357 242.334 A 35.192 35.192 0 0 1 2342.164 234.815 A 35.192 35.192 0 0 1 2334.644 223.621 Q 2331.91 217.212 2331.91 210.035 L 2331.91 35.035 A 34.258 34.258 0 0 1 2334.644 21.448 A 34.2 34.2 0 0 1 2342.164 10.34 A 37.177 37.177 0 0 1 2353.357 2.82 Q 2359.766 0 2366.944 0 L 2489.478 0 Q 2496.656 0 2503.064 2.82 A 37.177 37.177 0 0 1 2514.258 10.34 Q 2519.043 15.039 2521.778 21.448 Q 2524.512 27.857 2524.512 35.035 Z M 2804.444 194.312 L 2804.444 160.645 L 2925.269 0 L 2966.456 0 L 2966.456 160.645 L 2999.439 160.645 L 2999.439 194.312 L 2966.456 194.312 L 2966.456 245.069 L 2931.421 245.069 L 2931.421 194.312 L 2804.444 194.312 Z M 434.082 35.035 L 294.117 35.035 L 294.117 210.035 L 434.082 210.035 L 434.082 35.035 Z M 2489.478 35.035 L 2366.944 35.035 L 2366.944 210.035 L 2489.478 210.035 L 2489.478 35.035 Z M 858.252 0 L 893.287 0 L 893.287 245.069 L 858.252 245.069 L 858.252 0 Z M 1607.3 0 L 1642.334 0 L 1642.334 245.069 L 1607.3 245.069 L 1607.3 0 Z M 2842.554 160.645 L 2931.421 160.645 L 2931.421 42.383 L 2842.554 160.645 Z" vector-effect="non-scaling-stroke"/></g></svg>