<svg width="3220.006" height="511.012" viewBox="0 0 3220.006 511.012" xmlns="http://www.w3.org/2000/svg"><g id="svgGroup" stroke-linecap="round" fill-rule="evenodd" font-size="9pt" stroke="#000" stroke-width="0.25mm" fill="#ffffff" style="stroke:#000;stroke-width:0.25mm;fill:#ffffff"><path d="M 1164.806 500.506 L 1164.806 10.506 L 1302.006 10.506 L 1454.606 216.306 L 1607.906 10.506 L 1744.406 10.506 L 1744.406 500.506 L 1579.206 500.506 L 1579.206 387.806 L 1580.606 287.006 L 1578.506 287.006 L 1501.506 392.706 L 1407.706 392.706 L 1330.706 286.306 L 1328.606 287.006 L 1330.006 387.806 L 1330.006 500.506 L 1164.806 500.506 Z M 521.506 214.906 L 355.606 214.906 Q 345.806 186.906 321.656 170.456 A 95.134 95.134 0 0 0 271.848 154.15 A 116.845 116.845 0 0 0 266.006 154.006 A 105.72 105.72 0 0 0 234.027 158.627 A 85.04 85.04 0 0 0 197.056 182.006 Q 170.806 210.006 170.806 255.506 A 124.775 124.775 0 0 0 175.097 289.042 A 94.81 94.81 0 0 0 197.056 328.656 Q 223.306 357.006 264.606 357.006 Q 297.506 357.006 322.006 340.206 A 91.807 91.807 0 0 0 356.965 294.121 A 112.17 112.17 0 0 0 357.006 294.006 L 523.606 294.006 A 251.829 251.829 0 0 1 500.88 372.09 A 229.244 229.244 0 0 1 479.156 408.106 Q 443.106 457.106 386.406 484.056 A 279.875 279.875 0 0 1 291.788 509.525 A 341.123 341.123 0 0 1 259.706 511.006 Q 182.706 511.006 123.906 478.806 Q 65.106 446.606 32.556 388.506 Q 0.006 330.406 0.006 255.506 A 294.239 294.239 0 0 1 9.192 180.666 A 246.134 246.134 0 0 1 32.556 122.506 Q 65.106 64.406 123.906 32.206 Q 182.706 0.006 258.306 0.006 A 324.588 324.588 0 0 1 330.577 7.752 A 266.371 266.371 0 0 1 383.956 25.906 Q 439.606 51.806 474.956 100.456 A 258.482 258.482 0 0 1 515.45 186.939 A 314.31 314.31 0 0 1 521.506 214.906 Z M 2877.006 500.506 L 2877.006 337.406 L 2702.706 10.506 L 2890.306 10.506 L 2930.206 101.506 L 2960.306 175.706 L 2962.406 175.706 L 2991.806 101.506 L 3031.706 10.506 L 3220.006 10.506 L 3046.406 334.606 L 3046.406 500.506 L 2877.006 500.506 Z M 1832.606 500.506 L 1832.606 10.506 L 2060.106 10.506 A 296.143 296.143 0 0 1 2115.334 15.414 A 219.323 219.323 0 0 1 2171.056 33.606 A 174.009 174.009 0 0 1 2225.768 74.632 A 165.991 165.991 0 0 1 2243.856 99.406 A 178.968 178.968 0 0 1 2267.154 166.72 A 231.448 231.448 0 0 1 2269.406 199.506 A 217.781 217.781 0 0 1 2263.792 250.011 A 171.495 171.495 0 0 1 2243.856 299.256 A 169.558 169.558 0 0 1 2174.316 363.243 A 202.791 202.791 0 0 1 2171.406 364.706 A 219.543 219.543 0 0 1 2110.036 383.993 A 295.896 295.896 0 0 1 2061.506 387.806 L 2002.006 387.806 L 2002.006 500.506 L 1832.606 500.506 Z M 2327.506 500.506 L 2327.506 10.506 L 2496.906 10.506 L 2496.906 345.806 L 2683.106 345.806 L 2683.106 500.506 L 2327.506 500.506 Z M 830.906 511.006 Q 751.806 511.006 690.206 478.456 Q 628.606 445.906 594.306 387.806 Q 560.006 329.706 560.006 255.506 A 274.038 274.038 0 0 1 571.316 175.6 A 239.227 239.227 0 0 1 594.306 123.206 Q 628.606 65.106 690.206 32.556 A 280.499 280.499 0 0 1 787.796 2.581 A 351.799 351.799 0 0 1 830.906 0.006 Q 910.706 0.006 972.306 32.556 Q 1033.906 65.106 1068.206 123.206 Q 1102.506 181.306 1102.506 255.506 A 274.038 274.038 0 0 1 1091.196 335.411 A 239.227 239.227 0 0 1 1068.206 387.806 Q 1033.906 445.906 972.306 478.456 A 280.059 280.059 0 0 1 876.683 508.137 A 355.235 355.235 0 0 1 830.906 511.006 Z M 730.806 255.506 A 116.965 116.965 0 0 0 735.606 289.786 A 93.29 93.29 0 0 0 758.806 328.656 Q 786.806 357.006 830.906 357.006 A 112.059 112.059 0 0 0 866.188 351.676 A 93.254 93.254 0 0 0 903.356 328.656 A 95.648 95.648 0 0 0 931.014 269.104 A 130.321 130.321 0 0 0 931.706 255.506 Q 931.706 210.706 903.356 182.356 A 95.655 95.655 0 0 0 841.685 154.449 A 128.583 128.583 0 0 0 830.906 154.006 A 111.968 111.968 0 0 0 796.562 159.052 A 91.75 91.75 0 0 0 758.806 182.356 A 95.882 95.882 0 0 0 731.633 240.592 A 130.892 130.892 0 0 0 730.806 255.506 Z M 1998.506 255.506 L 2037.706 255.506 Q 2058.855 255.506 2073.093 248.421 A 48.875 48.875 0 0 0 2083.906 241.156 A 46.836 46.836 0 0 0 2098.732 214.561 A 69.624 69.624 0 0 0 2100.006 200.906 A 66.797 66.797 0 0 0 2098.016 184.122 A 46.176 46.176 0 0 0 2083.906 160.656 A 52.245 52.245 0 0 0 2064.486 149.95 Q 2056.593 147.473 2047.058 146.68 A 112.86 112.86 0 0 0 2037.706 146.306 L 1998.506 146.306 L 1998.506 255.506 Z" vector-effect="non-scaling-stroke"/></g></svg>