<svg width="3220.033" height="511.057" viewBox="0 0 3220.033 511.057" xmlns="http://www.w3.org/2000/svg"><g id="svgGroup" stroke-linecap="round" fill-rule="evenodd" font-size="9pt" stroke="#294fcc" stroke-width="0.25mm" fill="#000" style="stroke:#294fcc;stroke-width:0.25mm;fill:#000"><path d="M 1164.833 500.53 L 1330.033 500.53 L 1330.033 387.83 L 1328.633 287.03 L 1330.733 286.33 L 1407.733 392.73 L 1501.533 392.73 L 1578.533 287.03 L 1580.633 287.03 L 1579.233 387.83 L 1579.233 500.53 L 1744.433 500.53 L 1744.433 10.53 L 1607.933 10.53 L 1454.633 216.33 L 1302.033 10.53 L 1164.833 10.53 L 1164.833 500.53 Z M 523.633 294.03 L 357.033 294.03 A 93.668 93.668 0 0 1 275.779 356.494 A 114.688 114.688 0 0 1 264.633 357.03 A 92.326 92.326 0 0 1 208.812 339.46 C 185.13 321.881 170.833 292.214 170.833 255.53 A 117.97 117.97 0 0 1 180.358 207.466 C 194.433 175.772 223.191 155.951 260.472 154.162 A 116.05 116.05 0 0 1 266.033 154.03 A 99.224 99.224 0 0 1 319.644 169.109 A 87.272 87.272 0 0 1 355.633 214.93 L 521.533 214.93 C 499.133 81.93 399.033 0.03 258.333 0.03 A 277.825 277.825 0 0 0 123.993 32.425 C 47.195 74.462 0.033 154.533 0.033 255.53 C 0.033 407.43 104.333 511.03 259.733 511.03 A 295.084 295.084 0 0 0 392.828 481.23 A 238.77 238.77 0 0 0 523.633 294.03 Z M 2877.033 500.53 L 3046.433 500.53 L 3046.433 334.63 L 3220.033 10.53 L 3031.733 10.53 L 2991.833 101.53 L 2962.433 175.73 L 2960.333 175.73 L 2930.233 101.53 L 2890.333 10.53 L 2702.733 10.53 L 2877.033 337.43 L 2877.033 500.53 Z M 1832.633 500.53 L 2002.033 500.53 L 2002.033 387.83 L 2061.533 387.83 A 262.943 262.943 0 0 0 2153.367 372.553 C 2226.106 345.484 2269.433 283.899 2269.433 199.53 A 194.333 194.333 0 0 0 2245.638 102.63 C 2223.634 63.824 2187.133 35.767 2139.352 21.414 A 275.237 275.237 0 0 0 2060.133 10.53 L 1832.633 10.53 L 1832.633 500.53 Z M 2327.533 500.53 L 2683.133 500.53 L 2683.133 345.83 L 2496.933 345.83 L 2496.933 10.53 L 2327.533 10.53 L 2327.533 500.53 Z M 830.933 511.03 C 991.933 511.03 1102.533 405.33 1102.533 255.53 A 254.181 254.181 0 0 0 1055.493 103.842 C 1008.436 39.281 929.042 0.03 830.933 0.03 A 304.259 304.259 0 0 0 697.071 29.117 C 614.958 69.109 563.332 147.449 560.186 245.937 A 300.438 300.438 0 0 0 560.033 255.53 A 254.584 254.584 0 0 0 606.581 406.596 C 641.415 454.788 694.145 488.971 759.081 503.394 A 331.17 331.17 0 0 0 830.933 511.03 Z M 743.189 203.433 A 109.42 109.42 0 0 0 730.833 255.53 A 121.821 121.821 0 0 0 732.696 277.029 C 737.879 305.952 753.604 328.916 776.44 342.69 A 104.586 104.586 0 0 0 830.933 357.03 C 889.733 357.03 931.733 315.73 931.733 255.53 A 120.645 120.645 0 0 0 930.102 235.526 C 925.196 206.333 909.492 183.071 886.648 168.992 A 105.288 105.288 0 0 0 830.933 154.03 A 119.383 119.383 0 0 0 816.462 154.896 C 783.631 158.904 757.581 176.613 743.189 203.433 Z M 1998.533 255.53 L 1998.533 146.33 L 2037.733 146.33 A 89.937 89.937 0 0 1 2062.656 149.541 C 2086.835 156.523 2100.033 174.602 2100.033 200.93 A 59.15 59.15 0 0 1 2094.682 226.711 C 2086.241 244.31 2068.03 254.561 2041.604 255.465 A 113.237 113.237 0 0 1 2037.733 255.53 L 1998.533 255.53 Z" vector-effect="non-scaling-stroke"/></g></svg>