
<svg width="190.4" height="73.001" viewBox="0 0 190.4 73.001" xmlns="http://www.w3.org/2000/svg"><g id="svgGroup" stroke-linecap="round" fill-rule="nonzero" font-size="9pt" stroke="#999230" stroke-width=".50mm" fill="#ffffff" style="stroke:#999230;stroke-width:.50mm;fill:#ffffff"><path d="M 190.1 30.701 L 166.4 30.701 Q 165 26.701 161.55 24.351 A 13.591 13.591 0 0 0 154.435 22.021 A 16.692 16.692 0 0 0 153.6 22.001 A 15.103 15.103 0 0 0 149.032 22.661 A 12.149 12.149 0 0 0 143.75 26.001 A 13.606 13.606 0 0 0 140.299 33.031 A 19.3 19.3 0 0 0 140 36.501 A 17.825 17.825 0 0 0 140.613 41.292 A 13.544 13.544 0 0 0 143.75 46.951 A 12.434 12.434 0 0 0 152.761 50.989 A 16.692 16.692 0 0 0 153.4 51.001 A 15.532 15.532 0 0 0 157.928 50.363 A 13.256 13.256 0 0 0 161.6 48.601 A 13.115 13.115 0 0 0 166.594 42.017 A 16.057 16.057 0 0 0 166.6 42.001 L 190.4 42.001 A 35.976 35.976 0 0 1 187.153 53.156 A 32.749 32.749 0 0 1 184.05 58.301 Q 178.9 65.301 170.8 69.151 A 39.982 39.982 0 0 1 157.283 72.789 A 48.732 48.732 0 0 1 152.7 73.001 Q 141.7 73.001 133.3 68.401 Q 124.9 63.801 120.25 55.501 Q 115.6 47.201 115.6 36.501 A 42.034 42.034 0 0 1 116.912 25.809 A 35.162 35.162 0 0 1 120.25 17.501 Q 124.9 9.201 133.3 4.601 Q 141.7 0.001 152.5 0.001 A 46.37 46.37 0 0 1 162.824 1.107 A 38.053 38.053 0 0 1 170.45 3.701 Q 178.4 7.401 183.45 14.351 A 36.926 36.926 0 0 1 189.235 26.705 A 44.901 44.901 0 0 1 190.1 30.701 Z M 0 71.501 L 0 1.501 L 24.2 1.501 L 24.2 49.401 L 50.8 49.401 L 50.8 71.501 L 0 71.501 Z M 59.6 71.501 L 59.6 1.501 L 83.8 1.501 L 83.8 49.401 L 110.4 49.401 L 110.4 71.501 L 59.6 71.501 Z"/></g></svg>