
<svg width="5215.7" height="511.012" viewBox="0 0 5215.7 511.012" xmlns="http://www.w3.org/2000/svg"><g id="svgGroup" stroke-linecap="round" fill-rule="nonzero" font-size="9pt" stroke="#999230" stroke-width=".50mm" fill="#ffffff" style="stroke:#999230;stroke-width:.50mm;fill:#ffffff"><path d="M 3160.5 500.506 L 3160.5 10.506 L 3297.7 10.506 L 3450.3 216.306 L 3603.6 10.506 L 3740.1 10.506 L 3740.1 500.506 L 3574.9 500.506 L 3574.9 387.806 L 3576.3 287.006 L 3574.2 287.006 L 3497.2 392.706 L 3403.4 392.706 L 3326.4 286.306 L 3324.3 287.006 L 3325.7 387.806 L 3325.7 500.506 L 3160.5 500.506 Z M 0 339.506 L 161.7 339.506 A 71.866 71.866 0 0 0 163.025 353.761 Q 164.729 362.173 168.625 368.637 A 37.909 37.909 0 0 0 174.3 375.906 A 40.517 40.517 0 0 0 191.725 386.007 Q 200.102 388.506 210.7 388.506 Q 224.24 388.506 233.732 384.925 A 36.505 36.505 0 0 0 242.2 380.456 A 25.735 25.735 0 0 0 253.179 361.709 A 35.203 35.203 0 0 0 253.4 357.706 A 30.766 30.766 0 0 0 243.019 334.561 A 51.56 51.56 0 0 0 234.15 327.956 A 90.203 90.203 0 0 0 220.716 321.499 Q 206.503 315.924 185.493 311.709 A 390.039 390.039 0 0 0 172.9 309.406 Q 117.983 300.105 81.279 281.558 A 161.535 161.535 0 0 1 44.8 256.906 A 124.897 124.897 0 0 1 5.221 179.886 A 177.892 177.892 0 0 1 3.5 154.706 A 157.977 157.977 0 0 1 11.565 103.077 A 131.581 131.581 0 0 1 56.35 41.306 A 179.945 179.945 0 0 1 116.828 10.986 Q 153.957 0.006 201.6 0.006 A 330.802 330.802 0 0 1 253.577 3.891 Q 284.966 8.887 311.15 20.306 A 176.616 176.616 0 0 1 355.235 47.379 A 151.858 151.858 0 0 1 383.25 78.756 A 155.165 155.165 0 0 1 408.322 148.919 A 195.054 195.054 0 0 1 409.5 168.006 L 251.3 168.006 Q 251.3 150.882 244.569 139.72 A 36.892 36.892 0 0 0 239.05 132.656 A 39.904 39.904 0 0 0 220.925 122.428 Q 213.5 120.406 204.4 120.406 A 74.161 74.161 0 0 0 192.442 121.31 Q 181.125 123.162 173.6 128.806 A 28.12 28.12 0 0 0 165.655 137.739 Q 162.604 143.289 162.413 150.269 A 34.308 34.308 0 0 0 162.4 151.206 A 28.074 28.074 0 0 0 172.027 172.483 A 47.181 47.181 0 0 0 180.25 178.506 Q 198.1 189.006 242.2 197.406 Q 329.367 214.041 371.942 248.385 A 138.564 138.564 0 0 1 376.25 252.006 A 121.988 121.988 0 0 1 417.667 333.973 A 171.563 171.563 0 0 1 418.6 352.106 A 164.326 164.326 0 0 1 410.599 404.63 A 133.515 133.515 0 0 1 364 469.006 A 184.485 184.485 0 0 1 304.445 498.801 Q 279.31 506.429 249.248 509.29 A 399.884 399.884 0 0 1 211.4 511.006 Q 111.3 511.006 55.65 465.856 A 147.226 147.226 0 0 1 1.498 365.179 A 213.218 213.218 0 0 1 0 339.506 Z M 2517.2 214.906 L 2351.3 214.906 Q 2341.5 186.906 2317.35 170.456 A 95.134 95.134 0 0 0 2267.542 154.15 A 116.845 116.845 0 0 0 2261.7 154.006 A 105.72 105.72 0 0 0 2229.722 158.627 A 85.04 85.04 0 0 0 2192.75 182.006 Q 2166.5 210.006 2166.5 255.506 A 124.775 124.775 0 0 0 2170.791 289.042 A 94.81 94.81 0 0 0 2192.75 328.656 Q 2219 357.006 2260.3 357.006 Q 2293.2 357.006 2317.7 340.206 A 91.807 91.807 0 0 0 2352.659 294.121 A 112.17 112.17 0 0 0 2352.7 294.006 L 2519.3 294.006 A 251.829 251.829 0 0 1 2496.575 372.09 A 229.244 229.244 0 0 1 2474.85 408.106 Q 2438.8 457.106 2382.1 484.056 A 279.875 279.875 0 0 1 2287.482 509.525 A 341.123 341.123 0 0 1 2255.4 511.006 Q 2178.4 511.006 2119.6 478.806 Q 2060.8 446.606 2028.25 388.506 Q 1995.7 330.406 1995.7 255.506 A 294.239 294.239 0 0 1 2004.887 180.666 A 246.134 246.134 0 0 1 2028.25 122.506 Q 2060.8 64.406 2119.6 32.206 Q 2178.4 0.006 2254 0.006 A 324.588 324.588 0 0 1 2326.271 7.752 A 266.371 266.371 0 0 1 2379.65 25.906 Q 2435.3 51.806 2470.65 100.456 A 258.482 258.482 0 0 1 2511.145 186.939 A 314.31 314.31 0 0 1 2517.2 214.906 Z M 1433.6 500.506 L 1433.6 10.506 L 1786.4 10.506 L 1786.4 135.806 L 1598.1 135.806 L 1598.1 192.506 L 1768.2 192.506 L 1768.2 314.306 L 1598.1 314.306 L 1598.1 373.106 L 1793.4 373.106 L 1793.4 500.506 L 1433.6 500.506 Z M 4872.7 500.506 L 4872.7 337.406 L 4698.4 10.506 L 4886 10.506 L 4925.9 101.506 L 4956 175.706 L 4958.1 175.706 L 4987.5 101.506 L 5027.4 10.506 L 5215.7 10.506 L 5042.1 334.606 L 5042.1 500.506 L 4872.7 500.506 Z M 1028.3 500.506 L 1028.3 10.506 L 1365.7 10.506 L 1365.7 156.106 L 1196.3 156.106 L 1196.3 231.706 L 1348.2 231.706 L 1348.2 371.006 L 1196.3 371.006 L 1196.3 500.506 L 1028.3 500.506 Z M 441 500.506 L 623 10.506 L 799.4 10.506 L 982.1 500.506 L 804.3 500.506 L 782.6 439.606 L 639.1 439.606 L 617.4 500.506 L 441 500.506 Z M 667.1 327.606 L 756 327.606 L 712.6 193.206 L 709.8 193.206 L 667.1 327.606 Z M 3828.3 500.506 L 3828.3 10.506 L 4055.8 10.506 A 296.143 296.143 0 0 1 4111.029 15.414 A 219.323 219.323 0 0 1 4166.75 33.606 A 174.009 174.009 0 0 1 4221.463 74.632 A 165.991 165.991 0 0 1 4239.55 99.406 A 178.968 178.968 0 0 1 4262.849 166.72 A 231.448 231.448 0 0 1 4265.1 199.506 A 217.781 217.781 0 0 1 4259.486 250.011 A 171.495 171.495 0 0 1 4239.55 299.256 A 169.558 169.558 0 0 1 4170.011 363.243 A 202.791 202.791 0 0 1 4167.1 364.706 A 219.543 219.543 0 0 1 4105.731 383.993 A 295.896 295.896 0 0 1 4057.2 387.806 L 3997.7 387.806 L 3997.7 500.506 L 3828.3 500.506 Z M 3994.2 255.506 L 4033.4 255.506 Q 4054.55 255.506 4068.787 248.421 A 48.875 48.875 0 0 0 4079.6 241.156 A 46.836 46.836 0 0 0 4094.427 214.561 A 69.624 69.624 0 0 0 4095.7 200.906 A 66.797 66.797 0 0 0 4093.711 184.122 A 46.176 46.176 0 0 0 4079.6 160.656 A 52.245 52.245 0 0 0 4060.181 149.95 Q 4052.288 147.473 4042.752 146.68 A 112.86 112.86 0 0 0 4033.4 146.306 L 3994.2 146.306 L 3994.2 255.506 Z M 4323.2 500.506 L 4323.2 10.506 L 4492.6 10.506 L 4492.6 345.806 L 4678.8 345.806 L 4678.8 500.506 L 4323.2 500.506 Z M 2826.6 511.006 Q 2747.5 511.006 2685.9 478.456 Q 2624.3 445.906 2590 387.806 Q 2555.7 329.706 2555.7 255.506 A 274.038 274.038 0 0 1 2567.01 175.6 A 239.227 239.227 0 0 1 2590 123.206 Q 2624.3 65.106 2685.9 32.556 A 280.499 280.499 0 0 1 2783.491 2.581 A 351.799 351.799 0 0 1 2826.6 0.006 Q 2906.4 0.006 2968 32.556 Q 3029.6 65.106 3063.9 123.206 Q 3098.2 181.306 3098.2 255.506 A 274.038 274.038 0 0 1 3086.891 335.411 A 239.227 239.227 0 0 1 3063.9 387.806 Q 3029.6 445.906 2968 478.456 A 280.059 280.059 0 0 1 2872.378 508.137 A 355.235 355.235 0 0 1 2826.6 511.006 Z M 2726.5 255.506 A 116.965 116.965 0 0 0 2731.301 289.786 A 93.29 93.29 0 0 0 2754.5 328.656 Q 2782.5 357.006 2826.6 357.006 A 112.059 112.059 0 0 0 2861.882 351.676 A 93.254 93.254 0 0 0 2899.05 328.656 A 95.648 95.648 0 0 0 2926.708 269.104 A 130.321 130.321 0 0 0 2927.4 255.506 Q 2927.4 210.706 2899.05 182.356 A 95.655 95.655 0 0 0 2837.379 154.449 A 128.583 128.583 0 0 0 2826.6 154.006 A 111.968 111.968 0 0 0 2792.257 159.052 A 91.75 91.75 0 0 0 2754.5 182.356 A 95.882 95.882 0 0 0 2727.328 240.592 A 130.892 130.892 0 0 0 2726.5 255.506 Z"/></g></svg>