<svg width="1793.4" height="511.009" viewBox="0 0 1793.4 511.009" xmlns="http://www.w3.org/2000/svg"><g id="svgGroup" stroke-linecap="round" fill-rule="evenodd" font-size="9pt" stroke="#000" stroke-width="0.25mm" fill="#ffffff" style="stroke:#000;stroke-width:0.25mm;fill:#ffffff"><path d="M 0 339.503 L 161.7 339.503 A 71.866 71.866 0 0 0 163.025 353.758 Q 164.729 362.171 168.625 368.634 A 37.909 37.909 0 0 0 174.3 375.903 A 40.517 40.517 0 0 0 191.725 386.004 Q 200.102 388.503 210.7 388.503 Q 224.24 388.503 233.732 384.922 A 36.505 36.505 0 0 0 242.2 380.453 A 25.735 25.735 0 0 0 253.179 361.706 A 35.203 35.203 0 0 0 253.4 357.703 A 30.766 30.766 0 0 0 243.019 334.558 A 51.56 51.56 0 0 0 234.15 327.953 A 90.203 90.203 0 0 0 220.716 321.496 Q 206.503 315.922 185.493 311.706 A 390.039 390.039 0 0 0 172.9 309.403 Q 117.983 300.102 81.279 281.555 A 161.535 161.535 0 0 1 44.8 256.903 A 124.897 124.897 0 0 1 5.221 179.883 A 177.892 177.892 0 0 1 3.5 154.703 A 157.977 157.977 0 0 1 11.565 103.075 A 131.581 131.581 0 0 1 56.35 41.303 A 179.945 179.945 0 0 1 116.828 10.983 Q 153.957 0.003 201.6 0.003 A 330.802 330.802 0 0 1 253.577 3.889 Q 284.966 8.884 311.15 20.303 A 176.616 176.616 0 0 1 355.235 47.376 A 151.858 151.858 0 0 1 383.25 78.753 A 155.165 155.165 0 0 1 408.322 148.916 A 195.054 195.054 0 0 1 409.5 168.003 L 251.3 168.003 Q 251.3 150.879 244.569 139.717 A 36.892 36.892 0 0 0 239.05 132.653 A 39.904 39.904 0 0 0 220.925 122.425 Q 213.5 120.403 204.4 120.403 A 74.161 74.161 0 0 0 192.442 121.307 Q 181.125 123.159 173.6 128.803 A 28.12 28.12 0 0 0 165.655 137.737 Q 162.604 143.286 162.413 150.266 A 34.308 34.308 0 0 0 162.4 151.203 A 28.074 28.074 0 0 0 172.027 172.48 A 47.181 47.181 0 0 0 180.25 178.503 Q 198.1 189.003 242.2 197.403 Q 329.367 214.038 371.942 248.383 A 138.564 138.564 0 0 1 376.25 252.003 A 121.988 121.988 0 0 1 417.667 333.971 A 171.563 171.563 0 0 1 418.6 352.103 A 164.326 164.326 0 0 1 410.599 404.627 A 133.515 133.515 0 0 1 364 469.003 A 184.485 184.485 0 0 1 304.445 498.798 Q 279.31 506.426 249.248 509.287 A 399.884 399.884 0 0 1 211.4 511.003 Q 111.3 511.003 55.65 465.853 A 147.226 147.226 0 0 1 1.498 365.176 A 213.218 213.218 0 0 1 0 339.503 Z M 1433.6 500.503 L 1433.6 10.503 L 1786.4 10.503 L 1786.4 135.803 L 1598.1 135.803 L 1598.1 192.503 L 1768.2 192.503 L 1768.2 314.303 L 1598.1 314.303 L 1598.1 373.103 L 1793.4 373.103 L 1793.4 500.503 L 1433.6 500.503 Z M 1028.3 500.503 L 1028.3 10.503 L 1365.7 10.503 L 1365.7 156.103 L 1196.3 156.103 L 1196.3 231.703 L 1348.2 231.703 L 1348.2 371.003 L 1196.3 371.003 L 1196.3 500.503 L 1028.3 500.503 Z M 441 500.503 L 623 10.503 L 799.4 10.503 L 982.1 500.503 L 804.3 500.503 L 782.6 439.603 L 639.1 439.603 L 617.4 500.503 L 441 500.503 Z M 667.1 327.603 L 756 327.603 L 712.6 193.203 L 709.8 193.203 L 667.1 327.603 Z" vector-effect="non-scaling-stroke"/></g></svg>