<?xml version="1.0" standalone="no"?>
<!DOCTYPE svg PUBLIC "-//W3C//DTD SVG 20010904//EN"
 "http://www.w3.org/TR/2001/REC-SVG-20010904/DTD/svg10.dtd">
<svg version="1.0" xmlns="http://www.w3.org/2000/svg"
 width="1407.000000pt" height="512.000000pt" viewBox="0 0 1407.000000 512.000000"
 preserveAspectRatio="xMidYMid meet">

<g transform="translate(0.000000,512.000000) scale(0.100000,-0.100000)"
fill="#000000" stroke="none">
<path d="M882 2333 l3 -1528 6358 -3 6357 -2 0 1530 0 1530 -6360 0 -6360 0 2
-1527z m12648 -3 l0 -1440 -6280 0 -6280 0 0 1440 0 1440 6280 0 6280 0 0
-1440z"/>
<path d="M1300 2340 l0 -1250 2735 0 2735 0 0 1250 0 1250 -2735 0 -2735 0 0
-1250z m524 536 l396 -539 -24 -31 c-12 -17 -189 -256 -391 -531 -202 -275
-375 -507 -383 -515 -8 -8 109 231 261 531 l277 547 -277 548 c-152 302 -271
545 -266 539 6 -5 189 -253 407 -549z m1066 -46 c166 -32 290 -154 290 -287
l0 -34 -131 3 -131 3 -12 35 c-19 61 -110 89 -176 55 -54 -28 -50 -99 7 -128
15 -8 73 -27 128 -41 239 -64 323 -137 333 -291 5 -82 -7 -130 -49 -191 -57
-84 -153 -124 -309 -131 -108 -5 -197 10 -263 43 -86 45 -154 145 -164 240
l-6 54 136 0 136 0 11 -40 c13 -49 45 -71 109 -78 81 -7 132 33 117 93 -10 38
-57 63 -176 94 -181 48 -253 93 -296 186 -18 38 -24 67 -24 125 0 84 18 135
68 191 74 85 249 128 402 99z m1323 -493 c103 -266 187 -486 187 -490 0 -4
-67 -7 -149 -7 l-149 0 -27 70 -27 70 -166 -2 -165 -3 -25 -67 -25 -68 -148 0
c-82 0 -149 3 -149 8 0 4 84 224 187 490 l187 482 141 0 140 0 188 -483z
m1052 353 l0 -125 -182 -3 -183 -2 0 -90 0 -90 165 0 165 0 0 -125 0 -125
-165 0 -165 0 0 -145 0 -145 -140 0 -140 0 0 490 0 490 323 -2 322 -3 0 -125z
m935 15 l0 -115 -195 0 -195 0 0 -70 0 -70 175 0 175 0 0 -115 0 -115 -175 0
-175 0 0 -75 0 -75 200 0 200 0 0 -115 0 -115 -340 0 -340 0 0 490 0 490 335
0 335 0 0 -115z"/>
<path d="M3834 2344 c-27 -76 -50 -142 -52 -146 -2 -4 44 -8 102 -8 l105 0
-44 123 c-24 67 -47 133 -52 146 -8 20 -16 4 -59 -115z"/>
<path d="M7368 2761 c-256 -82 -387 -363 -297 -636 29 -85 78 -156 156 -221
131 -109 271 -150 435 -126 201 29 367 172 398 343 7 36 6 39 -16 39 -17 0
-24 6 -24 20 0 19 -7 20 -134 20 l-134 0 -20 -34 c-54 -92 -181 -131 -280 -86
-55 25 -84 85 -85 175 -1 144 86 237 222 237 71 0 109 -16 136 -59 11 -18 28
-32 37 -33 10 0 22 -9 28 -20 10 -18 21 -20 145 -20 l134 0 -18 53 c-29 84
-50 117 -115 186 -76 80 -160 135 -244 161 -85 26 -243 27 -324 1z"/>
<path d="M8459 2761 c-86 -28 -154 -69 -213 -131 -98 -102 -131 -198 -124
-360 4 -98 8 -114 41 -184 84 -176 269 -299 471 -313 194 -12 381 73 471 217
91 145 97 364 13 510 -40 71 -153 179 -226 218 -32 17 -85 38 -117 47 -82 21
-244 19 -316 -4z m299 -283 c90 -27 129 -186 73 -296 -75 -146 -301 -166 -368
-32 -41 80 -29 195 28 263 62 76 156 99 267 65z"/>
<path d="M9280 2295 l0 -465 25 0 c18 0 25 -5 25 -20 0 -19 7 -20 130 -20
l130 0 0 222 0 222 66 -89 c36 -50 73 -92 82 -94 9 -2 23 -12 30 -22 11 -16
26 -19 96 -19 l83 0 59 85 c32 46 62 84 67 85 4 0 7 -79 7 -175 l0 -175 25 0
c18 0 25 -5 25 -20 0 -19 7 -20 130 -20 l130 0 0 465 0 465 -21 0 c-12 0 -23
8 -26 20 -5 18 -14 20 -113 20 l-108 0 -147 -207 c-80 -115 -149 -209 -153
-210 -4 -1 -59 72 -122 163 -63 91 -135 185 -159 210 l-45 44 -108 0 -108 0 0
-465z"/>
<path d="M10540 2295 l0 -465 30 0 c23 0 30 -4 30 -20 0 -19 7 -20 130 -20
l130 0 0 114 0 113 118 6 c189 9 288 59 352 178 30 56 35 75 38 154 3 75 0
100 -18 149 -38 101 -151 203 -261 237 -53 16 -94 19 -305 19 l-244 0 0 -465z
m491 188 c17 -17 23 -106 9 -132 -19 -37 -70 -61 -127 -61 l-53 0 0 106 0 106
80 -3 c43 -2 84 -9 91 -16z"/>
<path d="M11460 2295 l0 -465 25 0 c18 0 25 -5 25 -20 0 -20 7 -20 320 -20
l320 0 0 120 c0 113 -1 120 -20 120 -15 0 -20 7 -20 25 l0 25 -170 0 -170 0 0
320 c0 313 0 320 -20 320 -13 0 -20 7 -20 20 0 19 -7 20 -135 20 l-135 0 0
-465z"/>
<path d="M12153 2753 c3 -5 79 -142 171 -305 l166 -298 0 -160 0 -160 25 0
c18 0 25 -5 25 -20 0 -19 7 -20 130 -20 l130 0 0 155 c0 125 3 162 16 188 9
18 81 147 159 287 78 140 146 265 149 278 6 19 4 22 -19 22 -22 0 -25 3 -20
20 6 20 3 20 -146 18 l-153 -3 -76 -147 -76 -148 -23 48 c-41 87 -116 212
-126 212 -6 0 -16 9 -23 20 -11 19 -23 20 -163 20 -82 0 -148 -3 -146 -7z"/>
</g>
</svg>
