
<svg width="3725.5" height="365.009" viewBox="0 0 3725.5 365.009" xmlns="http://www.w3.org/2000/svg"><g id="svgGroup" stroke-linecap="round" fill-rule="evenodd" font-size="9pt" stroke="#909ebd" stroke-width="0.25mm" fill="#d5e87e19" style="stroke:#909ebd;stroke-width:0.25mm;fill:#d5e87e19"><path d="M 0 242.504 L 115.5 242.504 Q 115.5 255.106 120.446 263.312 A 27.078 27.078 0 0 0 124.5 268.504 A 28.941 28.941 0 0 0 136.946 275.719 Q 142.93 277.504 150.5 277.504 Q 165 277.504 173 271.754 A 18.382 18.382 0 0 0 180.842 258.363 A 25.145 25.145 0 0 0 181 255.504 A 21.976 21.976 0 0 0 173.585 238.972 A 36.829 36.829 0 0 0 167.25 234.254 A 64.431 64.431 0 0 0 157.654 229.642 Q 147.502 225.66 132.495 222.649 A 278.599 278.599 0 0 0 123.5 221.004 A 292.768 292.768 0 0 1 88.33 212.952 Q 71.486 207.899 58.056 201.113 A 115.382 115.382 0 0 1 32 183.504 A 89.212 89.212 0 0 1 3.729 128.49 A 127.066 127.066 0 0 1 2.5 110.504 A 112.841 112.841 0 0 1 8.261 73.627 A 93.986 93.986 0 0 1 40.25 29.504 A 128.532 128.532 0 0 1 83.449 7.847 Q 101.681 2.455 123.464 0.77 A 266.387 266.387 0 0 1 144 0.004 Q 189 0.004 222.25 14.504 A 126.155 126.155 0 0 1 253.739 33.842 A 108.47 108.47 0 0 1 273.75 56.254 A 110.832 110.832 0 0 1 291.659 106.37 A 139.324 139.324 0 0 1 292.5 120.004 L 179.5 120.004 A 49.765 49.765 0 0 0 178.581 110.12 Q 176.663 100.667 170.75 94.754 A 28.503 28.503 0 0 0 157.804 87.448 Q 153.329 86.23 148.002 86.039 A 56.053 56.053 0 0 0 146 86.004 A 52.972 52.972 0 0 0 137.459 86.65 Q 132.912 87.394 129.222 88.995 A 25.73 25.73 0 0 0 124 92.004 Q 116.27 97.802 116.009 107.335 A 24.506 24.506 0 0 0 116 108.004 A 20.053 20.053 0 0 0 122.876 123.202 A 33.701 33.701 0 0 0 128.75 127.504 A 60.926 60.926 0 0 0 137.125 131.494 Q 146.518 135.219 161.086 138.53 A 346.134 346.134 0 0 0 173 141.004 A 350.951 350.951 0 0 1 208.784 149.66 Q 247.481 161.371 268.75 180.004 A 87.134 87.134 0 0 1 298.334 238.552 A 122.545 122.545 0 0 1 299 251.504 A 117.376 117.376 0 0 1 293.285 289.021 A 95.368 95.368 0 0 1 260 335.004 A 131.775 131.775 0 0 1 217.461 356.287 Q 199.507 361.735 178.034 363.778 A 285.631 285.631 0 0 1 151 365.004 Q 100.517 365.004 65.862 348.927 A 124.146 124.146 0 0 1 39.75 332.754 A 105.162 105.162 0 0 1 1.07 260.842 A 152.298 152.298 0 0 1 0 242.504 Z" id="0" vector-effect="non-scaling-stroke"/><path d="M 315 357.504 L 445 7.504 L 571 7.504 L 701.5 357.504 L 574.5 357.504 L 559 314.004 L 456.5 314.004 L 441 357.504 L 315 357.504 Z M 476.5 234.004 L 540 234.004 L 509 138.004 L 507 138.004 L 476.5 234.004 Z" id="1" vector-effect="non-scaling-stroke"/><path d="M 734.5 357.504 L 734.5 7.504 L 975.5 7.504 L 975.5 111.504 L 854.5 111.504 L 854.5 165.504 L 963 165.504 L 963 265.004 L 854.5 265.004 L 854.5 357.504 L 734.5 357.504 Z" id="2" vector-effect="non-scaling-stroke"/><path d="M 1024 357.504 L 1024 7.504 L 1276 7.504 L 1276 97.004 L 1141.5 97.004 L 1141.5 137.504 L 1263 137.504 L 1263 224.504 L 1141.5 224.504 L 1141.5 266.504 L 1281 266.504 L 1281 357.504 L 1024 357.504 Z" id="3" vector-effect="non-scaling-stroke"/><path d="M 1798 153.504 L 1679.5 153.504 Q 1672.5 133.504 1655.25 121.754 A 67.953 67.953 0 0 0 1619.673 110.107 A 83.461 83.461 0 0 0 1615.5 110.004 A 75.515 75.515 0 0 0 1592.658 113.305 A 60.743 60.743 0 0 0 1566.25 130.004 A 68.029 68.029 0 0 0 1548.994 165.155 A 96.498 96.498 0 0 0 1547.5 182.504 A 89.125 89.125 0 0 0 1550.565 206.459 A 67.721 67.721 0 0 0 1566.25 234.754 A 62.168 62.168 0 0 0 1611.306 254.944 A 83.458 83.458 0 0 0 1614.5 255.004 A 77.658 77.658 0 0 0 1637.139 251.814 A 66.279 66.279 0 0 0 1655.5 243.004 A 65.576 65.576 0 0 0 1680.471 210.086 A 80.056 80.056 0 0 0 1680.5 210.004 L 1799.5 210.004 A 179.878 179.878 0 0 1 1783.268 265.778 A 163.746 163.746 0 0 1 1767.75 291.504 Q 1742 326.504 1701.5 345.754 A 199.91 199.91 0 0 1 1633.916 363.947 A 243.659 243.659 0 0 1 1611 365.004 Q 1556 365.004 1514 342.004 Q 1472 319.004 1448.75 277.504 Q 1425.5 236.004 1425.5 182.504 A 210.171 210.171 0 0 1 1432.062 129.047 A 175.81 175.81 0 0 1 1448.75 87.504 Q 1472 46.004 1514 23.004 Q 1556 0.004 1610 0.004 A 231.849 231.849 0 0 1 1661.622 5.537 A 190.265 190.265 0 0 1 1699.75 18.504 Q 1739.5 37.004 1764.75 71.754 A 184.63 184.63 0 0 1 1793.675 133.528 A 224.507 224.507 0 0 1 1798 153.504 Z" id="5" vector-effect="non-scaling-stroke"/><path d="M 1962.497 358.442 A 234.357 234.357 0 0 0 2019 365.004 A 253.739 253.739 0 0 0 2051.698 362.955 A 200.042 200.042 0 0 0 2120 341.754 Q 2164 318.504 2188.5 277.004 A 170.876 170.876 0 0 0 2204.922 239.579 A 195.741 195.741 0 0 0 2213 182.504 A 217.325 217.325 0 0 0 2212.277 164.625 A 177.297 177.297 0 0 0 2188.5 88.004 Q 2164 46.504 2120 23.254 A 193.192 193.192 0 0 0 2074.325 6.186 A 238.075 238.075 0 0 0 2019 0.004 A 251.285 251.285 0 0 0 1988.208 1.843 A 200.357 200.357 0 0 0 1918.5 23.254 Q 1874.5 46.504 1850 88.004 A 170.876 170.876 0 0 0 1833.579 125.429 A 195.741 195.741 0 0 0 1825.5 182.504 A 217.325 217.325 0 0 0 1826.224 200.383 A 177.297 177.297 0 0 0 1850 277.004 Q 1874.5 318.504 1918.5 341.754 A 193.223 193.223 0 0 0 1962.497 358.442 Z M 1947.5 182.504 A 83.547 83.547 0 0 0 1950.929 206.99 A 66.636 66.636 0 0 0 1967.5 234.754 A 67.324 67.324 0 0 0 2010.836 254.647 A 91.339 91.339 0 0 0 2019 255.004 A 80.042 80.042 0 0 0 2044.202 251.197 A 66.61 66.61 0 0 0 2070.75 234.754 Q 2091 214.504 2091 182.504 Q 2091 150.504 2070.75 130.254 Q 2050.5 110.004 2019 110.004 A 79.977 79.977 0 0 0 1994.469 113.608 A 65.536 65.536 0 0 0 1967.5 130.254 A 68.487 68.487 0 0 0 1948.091 171.851 A 93.494 93.494 0 0 0 1947.5 182.504 Z" id="6" vector-effect="non-scaling-stroke"/><path d="M 2257.5 357.504 L 2257.5 7.504 L 2355.5 7.504 L 2464.5 154.504 L 2574 7.504 L 2671.5 7.504 L 2671.5 357.504 L 2553.5 357.504 L 2553.5 277.004 L 2554.5 205.004 L 2553 205.004 L 2498 280.504 L 2431 280.504 L 2376 204.504 L 2374.5 205.004 L 2375.5 277.004 L 2375.5 357.504 L 2257.5 357.504 Z" id="7" vector-effect="non-scaling-stroke"/><path d="M 2734.5 357.504 L 2734.5 7.504 L 2897 7.504 A 211.531 211.531 0 0 1 2936.449 11.01 A 156.659 156.659 0 0 1 2976.25 24.004 A 124.292 124.292 0 0 1 3015.33 53.309 A 118.565 118.565 0 0 1 3028.25 71.004 A 127.834 127.834 0 0 1 3044.892 119.086 A 165.32 165.32 0 0 1 3046.5 142.504 A 155.558 155.558 0 0 1 3042.49 178.58 A 122.496 122.496 0 0 1 3028.25 213.754 A 121.113 121.113 0 0 1 2978.579 259.459 A 144.852 144.852 0 0 1 2976.5 260.504 A 156.816 156.816 0 0 1 2932.665 274.281 A 211.355 211.355 0 0 1 2898 277.004 L 2855.5 277.004 L 2855.5 357.504 L 2734.5 357.504 Z M 2853 182.504 L 2881 182.504 Q 2902.5 182.504 2914 172.254 A 33.454 33.454 0 0 0 2924.591 153.258 A 49.732 49.732 0 0 0 2925.5 143.504 Q 2925.5 125.004 2914 114.754 A 37.318 37.318 0 0 0 2900.129 107.107 Q 2891.834 104.504 2881 104.504 L 2853 104.504 L 2853 182.504 Z" id="8" vector-effect="non-scaling-stroke"/><path d="M 3088 357.504 L 3088 7.504 L 3209 7.504 L 3209 247.004 L 3342 247.004 L 3342 357.504 L 3088 357.504 Z" id="9" vector-effect="non-scaling-stroke"/><path d="M 3480.5 357.504 L 3480.5 241.004 L 3356 7.504 L 3490 7.504 L 3518.5 72.504 L 3540 125.504 L 3541.5 125.504 L 3562.5 72.504 L 3591 7.504 L 3725.5 7.504 L 3601.5 239.004 L 3601.5 357.504 L 3480.5 357.504 Z" id="10" vector-effect="non-scaling-stroke"/></g></svg>